<?xml version="1.0" encoding="UTF-8" standalone="no"?>
<!-- Generated by IcoMoon.io -->

<svg
   xmlns:dc="http://purl.org/dc/elements/1.1/"
   xmlns:cc="http://creativecommons.org/ns#"
   xmlns:rdf="http://www.w3.org/1999/02/22-rdf-syntax-ns#"
   xmlns:svg="http://www.w3.org/2000/svg"
   xmlns="http://www.w3.org/2000/svg"
   xmlns:sodipodi="http://sodipodi.sourceforge.net/DTD/sodipodi-0.dtd"
   xmlns:inkscape="http://www.inkscape.org/namespaces/inkscape"
   version="1.1"
   width="174.41068"
   height="175.09464"
   viewBox="0 0 174.41067 175.09464"
   id="svg2"
   inkscape:version="0.48.5 r10040"
   sodipodi:docname="bulb.svg">
  <metadata
     id="metadata10">
    <rdf:RDF>
      <cc:Work
         rdf:about="">
        <dc:format>image/svg+xml</dc:format>
        <dc:type
           rdf:resource="http://purl.org/dc/dcmitype/StillImage" />
        <dc:title />
      </cc:Work>
    </rdf:RDF>
  </metadata>
  <defs
     id="defs8" />
  <sodipodi:namedview
     pagecolor="#ffffff"
     bordercolor="#666666"
     borderopacity="1"
     objecttolerance="10"
     gridtolerance="10"
     guidetolerance="10"
     inkscape:pageopacity="0"
     inkscape:pageshadow="2"
     inkscape:window-width="1920"
     inkscape:window-height="1014"
     id="namedview6"
     showgrid="false"
     fit-margin-top="0"
     fit-margin-left="0"
     fit-margin-right="0"
     fit-margin-bottom="0"
     inkscape:zoom="7.375"
     inkscape:cx="31.714089"
     inkscape:cy="87.547318"
     inkscape:window-x="0"
     inkscape:window-y="27"
     inkscape:window-maximized="1"
     inkscape:current-layer="svg2" />
  <g
     id="g2983"
     transform="matrix(3.8104665,0,0,3.8104665,-0.54717084,-0.5471708)">
    <path
       inkscape:connector-curvature="0"
       style="fill:#27d6bd;fill-opacity:1"
       id="path4"
       d="m 23.020511,7.1190827 c -6.076,0 -11,4.9240003 -11,11.0000003 0,4.031 3.688,8.303 5.031,12.055 2.003,5.595 1.781,8.945 5.969,8.945 4.25,0 3.965,-3.334 5.969,-8.922 1.347,-3.76 5.031,-8.078 5.031,-12.078 0,-6.076 -4.926,-11.0000003 -11,-11.0000003 z m 2.592,27.1760003 -4.958,0.619 c -0.177,-0.512 -0.367,-1.111 -0.598,-1.893 -0.003,-0.01 -0.007,-0.021 -0.009,-0.031 l 6.188,-0.773 c -0.088,0.295 -0.182,0.605 -0.264,0.883 -0.131,0.449 -0.248,0.839 -0.359,1.195 z m -5.856,-2.268 c -0.182,-0.602 -0.387,-1.236 -0.615,-1.908 h 7.766 c -0.123,0.359 -0.246,0.719 -0.352,1.059 l -6.799,0.849 z m 3.264,5.092 c -1.013,0 -1.479,-0.117 -1.997,-1.25 l 4.238,-0.531 c -0.614,1.654 -1.061,1.781 -2.241,1.781 z m 4.672,-9 h -9.333 c -0.498,-1.08 -1.096,-2.16 -1.686,-3.217 -1.305,-2.335 -2.653,-4.75 -2.653,-6.783 0,-4.963 4.037,-9.0000003 9,-9.0000003 4.963,0 9,4.0370003 9,9.0000003 0,2.018 -1.35,4.446 -2.656,6.795 -0.584,1.053 -1.178,2.131 -1.672,3.205 z m -4.672,-16 c 0.275,0 0.5,0.224 0.5,0.5 0,0.276 -0.224,0.5 -0.5,0.5 -2.757,0 -5,2.243 -5,5 0,0.276 -0.224,0.5 -0.5,0.5 -0.276,0 -0.5,-0.224 -0.5,-0.5 0,-3.309 2.691,-6 6,-6 z" />
    <path
       transform="matrix(1.1487743,0,0,1.1487743,2.2257502,4.738694)"
       d="m 37.152542,16 c 0,10.558936 -8.529355,19.118645 -19.050848,19.118645 -10.5214927,0 -19.0508479,-8.559709 -19.0508479,-19.118645 0,-10.5589359 8.5293552,-19.1186447 19.0508479,-19.1186447 10.521493,0 19.050848,8.5597088 19.050848,19.1186447 z"
       sodipodi:ry="19.118645"
       sodipodi:rx="19.050848"
       sodipodi:cy="16"
       sodipodi:cx="18.101694"
       id="path3755"
       style="fill:none;stroke:#27d6bd;stroke-width:1.74098599;stroke-miterlimit:4;stroke-opacity:1;stroke-dasharray:none"
       sodipodi:type="arc" />
  </g>
</svg>
