<?xml version="1.0" encoding="UTF-8" standalone="no"?>
<!-- Created with Inkscape (http://www.inkscape.org/) -->

<svg
   xmlns:dc="http://purl.org/dc/elements/1.1/"
   xmlns:cc="http://creativecommons.org/ns#"
   xmlns:rdf="http://www.w3.org/1999/02/22-rdf-syntax-ns#"
   xmlns:svg="http://www.w3.org/2000/svg"
   xmlns="http://www.w3.org/2000/svg"
   xmlns:sodipodi="http://sodipodi.sourceforge.net/DTD/sodipodi-0.dtd"
   xmlns:inkscape="http://www.inkscape.org/namespaces/inkscape"
   id="svg18507"
   version="1.1"
   inkscape:version="0.48.5 r10040"
   width="608.5875"
   height="722.4625"
   xml:space="preserve"
   sodipodi:docname="eagle-head.svg"><metadata
     id="metadata18513"><rdf:RDF><cc:Work
         rdf:about=""><dc:format>image/svg+xml</dc:format><dc:type
           rdf:resource="http://purl.org/dc/dcmitype/StillImage" /><dc:title /></cc:Work></rdf:RDF></metadata><defs
     id="defs18511"><clipPath
       clipPathUnits="userSpaceOnUse"
       id="clipPath18523"><path
         d="m 0,0 2028.64,0 0,2408 L 0,2408 0,0 z"
         id="path18525" /></clipPath></defs><sodipodi:namedview
     pagecolor="#ffffff"
     bordercolor="#666666"
     borderopacity="1"
     objecttolerance="10"
     gridtolerance="10"
     guidetolerance="10"
     inkscape:pageopacity="0"
     inkscape:pageshadow="2"
     inkscape:window-width="1920"
     inkscape:window-height="1014"
     id="namedview18509"
     showgrid="false"
     inkscape:zoom="0.40278906"
     inkscape:cx="-171.1412"
     inkscape:cy="361.23126"
     inkscape:window-x="0"
     inkscape:window-y="27"
     inkscape:window-maximized="1"
     inkscape:current-layer="g18515" /><g
     id="g18515"
     inkscape:groupmode="layer"
     inkscape:label="eagle-black-white-vector"
     transform="matrix(1.25,0,0,-1.25,0,722.4625)"><path
       inkscape:connector-curvature="0"
       id="path18527"
       style="fill:#27d6bd;fill-opacity:1;fill-rule:nonzero;stroke:none"
       d="m 393.5088,236.55 c -1.7448,1.06512 -3.5088,2.24448 -5.2824,3.486 -1.1568,-8.3976 -6.4056,-35.74536 -27.2808,-52.83696 21.3168,20.97288 23.7336,55.38336 23.7336,55.38336 l 0.0624,0 c -1.512,1.1544 -3.0336,2.3472 -4.5624,3.6264 -1.8624,-9.14496 -5.5056,-18.95976 -11.4408,-29.57784 -0.4632,-1.82544 -0.9552,-3.60288 -1.4688,-5.32224 l -2.316,-1.99032 c 7.1256,23.83128 10.5984,60.8064 -12.0384,94.32 12.3024,-27.0216 11.352,-50.6232 5.6016,-69.32808 l 0.0288,0.0665 c 3.9024,-38.02968 -20.0424,-71.23128 -33.0504,-84.29064 33.5928,17.46096 72.4584,53.6016 68.0136,86.46384 M 223.82352,509.5992 c 23.42448,-4.1664 45.55008,-8.1 58.72608,-5.1192 l 4.5,1.0176 c 0,0 -4.7328,-6.2376 -6.9504,-7.2792 13.0128,1.212 32.484,5.9136 40.452,14.232 l -0.0936,-0.2208 c 11.016,15.0456 27.9288,19.152 48.4704,12.78 -1.5384,9.9984 -13.9944,18.168 -25.908,25.62 -6.432,4.02 -12.996,8.1216 -18.2016,12.7392 2.988,-5.1216 7.3104,-10.1088 12.432,-12.5856 l 0.7128,-0.3408 0.2856,-0.7344 c 0.6552,-1.68 -0.1416,-2.64 -0.5136,-2.976 -1.5936,-1.4352 -3.4632,-0.4704 -10.4304,3.1224 -12.7752,6.588 -40.9656,21.1272 -72.6048,19.5432 2.6184,-1.1712 6.2232,-4.7424 6.3144,-6.7992 -2.628,-1.4856 -13.4112,-2.3064 -24.2796,-1.9992 -17.93832,0.5088 -44.9832,0.7032 -64.78512,-8.196 14.14416,3.2472 31.58352,0.7896 43.68096,-3.7248 11.85648,-4.4232 22.49256,-6.4248 34.12056,-4.1112 l 0.2688,-1.032 c -5.7552,-4.9632 -21.8316,-1.0848 -34.07904,3.1056 -5.69544,1.9464 -11.35224,3.0792 -16.78584,3.6384 -16.50384,-3.3048 -38.67288,-10.9296 -50.14032,-17.928 1.87584,-0.4464 7.97424,-4.3344 9.87744,-5.916 23.6616,1.6512 49.10064,-4.5864 67.70064,-8.7456 8.13648,-1.8216 18.92712,-5.8872 18.92712,-5.8872 -4.3368,0.264 -10.90128,1.7328 -19.21128,3.5904 -27.76488,6.2112 -71.64288,16.0224 -100.04808,-3.0216 26.34456,9.8976 63.80448,3.2328 97.56288,-2.772 m 15.93,-23.6184 c 3.80568,0 6.89208,3.816 6.89208,8.5224 0,3.9 -2.3664,6.6408 -5.3424,7.476 -0.5112,0.0816 -1.0272,0.1704 -1.54128,0.2568 -0.11904,0.007 -0.23352,0.036 -0.3564,0.036 -3.8052,0 -6.54552,-3.0624 -6.54552,-7.7688 0,-4.7064 3.0852,-8.5224 6.89352,-8.5224 m -13.91256,7.2672 c -2.90712,0 -5.26416,-2.58 -5.26416,-5.7624 0,-3.1848 2.35704,-5.7672 5.26416,-5.7672 2.90712,0 5.26416,2.5824 5.26416,5.7672 0,3.1824 -2.35704,5.7624 -5.26416,5.7624 m 46.07664,6.1608 c -7.4832,-0.0312 -16.224,0.54 -25.7352,1.8456 4.2456,-3.2136 6.9816,-8.1816 6.9816,-13.7688 0,-9.6912 -8.1936,-17.5464 -18.2988,-17.5464 -10.10616,0 -18.29808,7.8552 -18.29808,17.5464 0,7.848 5.37768,14.4912 12.79128,16.7328 -2.05968,0.4464 -4.13616,0.9168 -6.23712,1.4328 -4.88064,1.2 -9.58224,2.2152 -14.1432,3.0984 -3.88968,-5.6376 -5.94744,-12.2976 -5.94744,-19.26 0,-18.2448 14.28096,-33.0864 31.83456,-33.0864 17.5548,0 31.8324,14.8416 31.8324,33.0864 0,1.3896 -0.1032,2.7792 -0.2664,4.152 -1.9392,-0.0696 -3.7944,-0.1152 -5.496,-0.1416 0,0 8.7984,5.1984 10.9824,5.9088 m 214.956,-248.9856 c -5.244,-9.8352 -19.4832,-21.37968 -39.4656,-25.00128 -3.7656,-0.68352 -7.9968,-1.13256 -12.6072,-1.13256 -10.26,0 -22.416,2.25096 -35.5584,9.05616 -2.2488,-60.90456 -89.2632,-94.7736 -89.2632,-94.7736 0,0 44.0136,44.1468 43.3416,82.41 -0.9744,-2.04744 -1.9872,-4.00608 -3.0288,-5.88288 -1.2648,-17.97552 -15.648,-44.05392 -31.98,-64.02288 -17.0352,-20.832 -34.6512,-42.37488 -30.9768,-56.86296 1.5,-5.9184 6.5352,-10.29768 15.1056,-14.06904 12.7584,-5.6148 24.54,6.29064 24.54,6.29064 -5.6376,-10.27704 -17.0736,-17.02704 -26.796,-17.02704 -5.424,0 -10.548,1.29744 -14.508,3.80352 -7.14,4.52064 -12.4776,12.79776 -14.64,22.6968 -0.8736,3.99744 -1.152,8.01672 -0.9072,11.86128 C 252.696,77.84712 238.68,46.7052 248.9256,26.86512 260.0136,5.387808 306.972,1.8787512 306.972,1.8787512 299.004,0.6853128 289.9032,0 283.3512,0 c -33.1824,0 -49.0728,13.860936 -56.67312,26.71872 -18.0468,30.54384 -6.61968,78.86712 15.30672,110.16 -11.04672,-2.48712 -32.3532,-2.40096 -36.61416,-1.64712 0,0 51.29976,14.43288 71.18616,44.6784 -20.5704,-20.62872 -64.78128,-20.8632 -64.78128,-20.8632 l 6.43968,4.2564 c 21.77064,14.4 31.608,40.272 32.4408,55.14456 -4.6128,-12.28584 -13.33728,-27.28224 -23.22504,-36.19584 C 182.31,141.5784 210.27288,78.8748 210.27288,78.8748 c -50.42352,41.88456 -48.78576,80.95488 -36.4848,115.06392 -11.26584,-17.8632 -22.38096,-40.9584 -10.51224,-69.63936 l 2.63928,-6.37968 -5.6448,3.97032 c -24.6948,17.36904 -37.8384,47.62224 -42.66648,73.41 -5.81064,-29.91 -16.59,-54.4716 -48.92448,-62.24448 0,0 25.06584,22.308 28.3248,76.20096 1.03872,17.18352 3.55032,34.78512 9.06744,49.02672 C 75.55584,220.81416 84.72192,166.14192 84.72192,166.14192 36.09384,219.39 66.39552,263.52 82.46616,287.34 c 3.708,5.496 7.03896,9.7392 8.62032,13.5648 C 60.15744,276.18 7.328448,276.0456 0,278.9376 c 0,0 40.28256,16.308 71.77776,49.4568 9.03936,9.5136 20.16,17.5872 28.73544,23.9856 -31.83384,-8.2704 -64.41936,-47.3736 -64.41936,-47.3736 0.83328,34.8168 19.37064,61.7472 49.89648,82.6176 C 58.80744,376.248 39.63,349.7496 39.63,349.7496 c 0,29.076 29.88096,52.8624 47.01648,67.3104 1.07832,0.9096 2.09064,1.7664 3.06936,2.5968 C 75.97032,414.2664 55.39512,395.9952 55.39512,395.9952 60.60744,409.7664 73.3668,421.848 82.4448,429.1104 62.17416,417.4008 47.8752,399.696 47.8752,399.696 c 7.69224,26.22 27.71256,43.1568 42.70416,52.7088 -6.64224,-2.688 -13.59552,-6.2688 -20.51808,-11.0688 l -5.71128,-3.8952 2.73936,6.3456 c 7.71576,17.76 38.48352,31.5696 51.35352,36.8952 -10.1016,-1.2216 -21.91704,-4.9368 -36.16704,-16.0032 l -5.64,-4.38 2.53512,6.6768 c 15.07584,33.7104 60.06288,44.448 60.06288,44.448 -19.75416,-2.7168 -28.52448,-8.172 -28.52448,-8.172 10.98,14.172 26.19192,20.5392 42.61584,22.6248 l -0.6504,0.8304 c -3.60768,4.8936 -17.3196,1.7616 -17.3196,1.7616 14.50704,9.1056 31.94544,17.8968 50.20032,22.1112 -16.87032,-0.9144 -29.14584,-6.1968 -29.14584,-6.1968 14.2032,20.136 58.50552,20.8488 80.43744,20.2272 7.03128,-0.2016 13.29768,0.084 16.31688,0.7464 -2.2728,4.164 -13.41048,7.3512 -13.41048,7.3512 34.48008,5.8824 69.85368,-9.3456 85.90968,-17.5056 -5.064,6.0576 -9.084,22.7688 -9.084,22.7688 4.0896,-8.1048 18.3576,-17.5584 28.5648,-23.9424 12.576,-7.8624 25.656,-18.6144 27.6456,-30.3408 3.9288,-1.4376 7.9704,-3.204 12.1296,-5.364 1.32,0.2664 2.6688,0.5016 4.0776,0.6864 11.748,1.5408 26.0616,-6.576 35.9688,-19.32 13.8912,-17.8656 19.476,-47.5776 14.9424,-79.4808 -4.0728,-28.6392 -15.6288,-52.9776 -30.1632,-63.5184 -0.6192,-0.3888 -1.236,-0.5784 -1.8192,-0.5784 -0.4248,0 -0.8328,0.1008 -1.212,0.2976 -2.268,1.164 -2.5104,4.8168 -3.0432,12.8208 -0.6888,10.3464 -1.6824,25.0416 -8.0448,33.2424 -12.4656,-6.3816 -35.2056,-4.7616 -53.7552,-2.2608 -13.9368,1.8792 -28.3536,3.8256 -42.1152,2.7888 -9.5496,-0.72 -18.852,-2.2464 -27.8472,-3.7224 -10.5888,-1.74 -20.496,-3.3648 -29.208,-3.3648 -9.76488,-0.002 -17.1216,2.9184 -23.15808,9.1368 l 0,1.1376 c 9.9636,-10.2648 30.37248,-6.4584 51.71808,-2.952 9.0792,1.4904 18.4704,3.0336 28.1904,3.7632 14.1864,1.0656 28.8144,-0.9072 42.9576,-2.8128 18.0456,-2.436 37.3008,-5.0976 49.872,1.5672 -0.4536,0.3312 -0.9096,0.6648 -1.4064,0.9432 -10.5816,5.964 -17.9976,7.0056 -23.9568,7.8432 -4.2216,0.5952 -7.872,1.1064 -11.2248,3.24 -0.6912,0.4416 -1.452,0.9504 -2.292,1.512 -8.0736,5.4168 -23.2104,16.536 -53.7984,15.3048 28.8816,4.6368 47.5776,-6.3048 56.0352,-11.9736 0.8088,-0.5424 1.5408,-1.0344 2.2056,-1.4568 2.6256,-1.668 5.7168,-2.1024 9.6336,-2.6544 5.9616,-0.8376 14.1264,-1.9824 25.3704,-8.3208 12.5904,-7.0992 12.5784,-27.3048 13.4664,-40.6824 0.2088,-3.1176 0.9192,-11.6136 2.0064,-11.028 13.0944,10.2456 23.7912,35.3808 27.6168,62.292 4.3872,30.8496 -0.8976,59.4312 -14.1336,76.4568 -9.1488,11.76 -20.8488,16.9584 -31.4472,17.3256 -12.8016,0.4536 -26.1672,-5.1168 -40.44,-21.0552 0,0 7.9968,17.028 29.9016,23.5584 -18.6864,9.0336 -42.6456,13.7664 -57.552,-9.1752 l -3.468,-5.3568 c -9.8448,-15.2112 -19.5168,-27.396 -27.7848,-35.484 7.644,2.0424 18.6336,12.504 18.6336,12.504 -1.9032,-6.0984 -10.7808,-24.648 -31.0224,-30.3936 5.5824,0.204 13.0272,1.9776 15.2904,4.1328 l 0.1776,0.168 0.2352,0.0696 c 1.2432,0.36 2.112,0.216 2.5848,-0.4248 0.3144,-0.4248 0.5208,-1.188 -0.2832,-2.4024 -2.4624,-3.7296 -17.3136,-14.4864 -39.3048,-11.8416 3.9744,-1.3248 10.1736,-2.4768 19.1616,-1.8384 l 0.132,0.01 0.1296,-0.0264 c 1.0248,-0.1992 2.5704,-0.4992 2.58,-1.7016 0.0144,-1.416 -1.4544,-2.7984 -9.6216,-3.96 -35.76576,-5.0928 -46.30704,-19.9512 -46.30704,-19.9512 5.1264,13.6656 31.67424,19.3272 45.93744,22.368 1.8216,0.3888 3.6816,0.7848 5.1672,1.14 -17.5224,-0.7656 -24.0792,5.136 -24.36,5.4 l -2.784,2.58 3.696,-0.8688 c 20.94,-4.932 35.496,3.2664 39.4608,5.8992 1.9944,1.3248 3.2496,2.4672 3.9552,3.2664 -4.7496,-3.2688 -17.7072,-5.2656 -22.1784,-3.1968 l -3.0672,1.4208 3.3456,0.48 c 16.6512,2.4 26.3376,14.436 30.3216,20.6832 -9.8664,-9.6528 -22.9488,-11.6664 -27.672,-12.0672 11.0304,4.428 25.2384,23.076 40.2096,46.212 l 0.7992,1.2384 c -10.8504,-8.5968 -30.516,-11.2992 -45.7872,-12.1224 0.1632,-1.4328 0.2664,-2.88 0.2664,-4.3296 0,-20.4552 -16.0776,-37.0968 -35.8428,-37.0968 -19.7652,0 -35.84424,16.6416 -35.84424,37.0968 0,7.1808 1.98384,14.0664 5.70936,20.0472 -21.93744,3.8904 -40.04712,4.3032 -54.30096,3.1728 l -11.06424,-4.296 c -17.91576,-6.5016 -41.80128,-16.6032 -53.13384,-35.952 19.74384,13.0824 35.24808,12.9168 46.8516,12.792 5.1168,-0.0576 9.76776,-0.8832 13.46712,0.2016 l 0.26616,-0.9096 c 0.0874,-0.2928 -2.40648,-0.9648 -2.54808,-1.008 -8.39424,-2.3904 -17.20296,-3.12 -24.97224,-7.3512 -8.34456,-4.5432 -16.94712,-8.5152 -25.22424,-13.2144 -6.46032,-3.672 -13.97352,-7.692 -18.7848,-13.5384 0.30936,0.3768 1.31736,0.6432 1.76256,0.8592 4.76616,2.3184 9.54936,4.6104 14.45256,6.6288 4.33872,1.788 8.77128,3.3528 13.31328,4.5432 3.71448,0.972 7.49544,1.6848 11.31096,2.1336 3.00096,0.3552 6.018,0.552 9.03576,0.6648 2.48712,0.096 5.01096,0.2496 7.49808,0.1872 3.96,-0.0984 7.92552,-0.228 11.8884,-0.1392 3.37872,0.0768 6.76032,0.2712 10.13064,0.5352 3.78576,0.2952 7.54776,0.7632 11.27064,1.5168 3.5268,0.7104 7.08,1.5528 10.44552,2.8464 2.80608,1.08 5.67672,2.6352 7.92192,4.6704 -0.26904,-0.2448 -0.53232,-0.4968 -0.80064,-0.7464 -2.38872,-2.2056 -4.93296,-4.0776 -7.90776,-5.4264 -3.50712,-1.5912 -7.25808,-2.6808 -10.97352,-3.6648 -3.81936,-1.0104 -7.69104,-1.7232 -11.60712,-2.2344 -3.3984,-0.444 -6.81456,-0.8616 -10.23288,-1.1112 -4.22712,-0.3048 -8.46648,-0.1728 -12.69936,-0.2232 -4.32936,-0.0504 -8.61456,-0.444 -12.90264,-1.0128 -3.97224,-0.5256 -7.49352,-1.7424 -11.15448,-3.3456 -2.08776,-0.912 -4.11192,-1.9584 -6.07968,-3.1056 -7.84776,-4.5816 -15.7116,-9.5208 -22.77192,-15.2544 -6.96456,-5.6568 -13.76064,-12.144 -17.95128,-20.2032 0.38928,0.7488 1.71864,1.5264 2.35896,2.088 0.79392,0.696 1.5936,1.3896 2.40072,2.0664 1.6464,1.3824 3.32736,2.7192 5.05896,3.9912 6.2052,4.5624 13.00776,8.4456 20.08392,11.4864 7.30608,3.1392 15.0864,4.9944 22.89384,6.408 7.24224,1.308 14.51808,2.3784 21.85776,2.9616 8.18616,0.6528 16.47192,0.7896 24.62904,-0.3024 -5.53032,0.156 -11.12616,-0.1416 -16.62456,-0.7056 -9.10032,-0.9336 -18.00672,-2.7264 -26.94864,-4.5864 -8.0136,-1.668 -15.67488,-3.9312 -22.55808,-8.5128 -3.9036,-2.6016 -7.56096,-5.5488 -11.17584,-8.5344 -5.49936,-4.5384 -10.84224,-9.4152 -14.98608,-15.2712 0.59832,0.8448 1.87704,1.5744 2.68224,2.2296 0.94608,0.768 1.90128,1.5216 2.8716,2.2608 3.3732,2.5656 6.8868,4.9752 10.55808,7.092 3.21576,1.86 6.63288,3.2016 10.01064,4.7232 6.18,2.7768 12.42192,5.4384 18.92544,7.3752 9.9168,2.9544 20.43168,4.0704 30.73296,4.6824 1.99872,0.084 3.9984,0.2064 5.99832,0.2808 7.12776,0.2592 14.25552,0.1584 21.3852,0.2904 0.90648,0.0192 1.82904,0.0696 2.7348,0 0.78264,-0.06 1.53456,-0.2592 2.32488,-0.2448 -1.02936,-0.8352 -3.02712,-0.9552 -4.32096,-1.092 -1.55352,-0.168 -3.1152,-0.1896 -4.66776,-0.3432 -10.4832,-1.0344 -21.08448,-1.4016 -31.46256,-3.2928 -9.74256,-1.7712 -19.7232,-3.1752 -28.73712,-7.5024 -5.93544,-2.8488 -11.02512,-6.8856 -16.02936,-11.1048 -14.4216,-12.1584 -35.21544,-29.6904 -43.00968,-49.0896 3.56424,4.032 7.61904,7.8216 11.70456,11.3184 6.44904,5.5224 13.6548,10.0272 21.34968,13.5984 4.47576,2.0784 9.03936,3.972 13.6848,5.6376 2.38776,0.8568 4.80288,1.6464 7.23648,2.364 4.63968,1.368 9.57192,2.4768 14.25384,3.3192 3.6216,0.6504 7.24224,1.3008 10.87128,1.9032 13.78296,2.2896 27.69552,3.5688 41.55648,5.2728 9.88224,1.2144 20.42448,1.86 29.88552,5.2224 -3.822,-2.3184 -9.21552,-3.3408 -13.69488,-4.5096 -11.34096,-2.9592 -23.0748,-4.2 -34.66224,-5.7864 -2.86032,-0.3912 -5.71776,-0.7944 -8.57328,-1.2144 -3.24864,-0.4776 -6.49896,-0.936 -9.74832,-1.4136 -5.082,-0.7464 -10.1652,-1.4808 -15.14328,-2.784 C 104.29968,395.0496 95.57352,388.5 86.61192,382.4208 74.80512,374.412 63.82968,364.9896 56.1,352.8624 c -3.47712,-5.4528 -6.24096,-11.316 -8.49936,-17.3688 -1.12224,-3.012 -2.12616,-6.0672 -3.06552,-9.1392 -0.46992,-1.5408 -0.9264,-3.084 -1.37352,-4.632 -0.37128,-1.2912 -0.55608,-3.5688 -1.3248,-4.6488 14.478,20.352 46.91352,38.9544 76.48128,45.5376 0.49872,0.2544 3.5748,0.7584 4.52808,0.9144 l 0.0161,-0.096 c 16.29288,2.3232 60.78552,11.2584 73.81968,24.8064 -5.51544,-10.6224 -31.26744,-18.9552 -51.02712,-23.9976 -1.05384,-0.2688 -2.08512,-0.528 -3.10512,-0.7824 -18.12456,-5.9472 -53.52096,-39.0792 -59.66616,-42.072 5.35296,2.6064 27.72456,26.8488 44.05128,38.3232 -4.97928,-1.1904 -8.79576,-2.1504 -10.65,-2.8776 -11.10864,-6.756 -27.79416,-20.1168 -40.33608,-32.0208 -18.72456,-17.772 -41.99064,-36.4056 -61.075272,-43.1952 2.022168,0.7176 5.163744,0.2976 7.325616,0.4896 2.716776,0.2424 5.424456,0.5808 8.117736,1.0104 12.84384,2.0592 25.70736,5.76 37.578,11.088 3.19776,1.4352 6.31584,3.0336 9.342,4.8048 10.75032,6.2928 19.87704,14.28 28.26936,23.4336 10.02288,10.9368 20.77224,20.9712 33.04032,29.3688 9.98832,6.8376 21.56064,13.2936 33.4032,15.3624 -6.59808,-2.0232 -13.0284,-4.9344 -18.93096,-8.496 -7.5936,-4.5792 -14.44776,-10.3848 -21.17808,-16.1256 -6.97128,-5.9472 -13.43712,-12.4056 -19.19616,-19.5456 -9.40416,-11.6592 -16.69896,-24.7992 -25.0548,-37.1832 -15.68352,-23.2488 -38.99904,-57.8124 -8.74416,-103.9176 -0.88392,1.34904 -0.27072,5.81328 -0.33168,7.47192 -0.08832,2.42616 -0.15096,4.8552 -0.15384,7.28424 -0.0029,4.53384 0.1968,9.07032 0.81192,13.56384 1.91904,14.01648 8.03616,27.65232 15.63744,39.4992 16.3368,25.4544 39.42288,45.744 65.29512,61.0992 7.39104,4.3896 15.98136,9.9768 23.1252,11.4816 -8.81352,-4.2168 -17.49,-10.3176 -25.71936,-15.9312 -12.38064,-8.4408 -25.10256,-16.8264 -34.41192,-28.7928 -7.97904,-10.2552 -13.76256,-23.6472 -16.34808,-36.3936 -2.14224,-10.5588 -3.37872,-21.10752 -4.57224,-31.80048 -2.86032,-25.61448 -5.79936,-51.9216 -18.84456,-65.87736 19.4352,10.10352 28.75968,42.73872 34.79328,72.98256 5.40768,27.10488 10.56288,53.44728 27.00288,64.70328 l 6.26712,3.8856 c -2.51904,-2.1288 -4.48392,-6.5904 -6.27552,-9.3672 -2.23416,-3.4584 -4.37808,-6.9768 -6.38544,-10.572 -8.99064,-16.0992 -15.71808,-34.03776 -17.02104,-52.55064 -1.36896,-19.49712 4.65072,-38.5932 13.68168,-55.70808 5.51904,-10.4616 12.71544,-19.89936 21.79224,-27.5532 -9.9468,31.94256 4.48224,56.95704 16.60032,75.24744 2.42904,3.66672 4.8432,7.34544 7.18416,11.06832 4.16808,6.62808 8.15904,13.40616 11.61,20.44032 3.40392,6.93744 6.93744,14.14224 8.44584,21.77904 0.56256,2.8536 1.02288,5.7312 1.54872,8.5872 0.8532,4.6368 1.71,9.2736 2.70936,13.8792 0.50808,2.3328 0.89736,4.9656 2.1732,7.0392 -0.17064,-5.0352 -0.31224,-10.0704 -0.54192,-15.1008 -0.39192,-8.568 -1.30968,-16.9992 -4.27488,-25.104 -0.51576,-1.4088 -1.3716,-2.772 -2.03544,-4.116 -5.3052,-10.73088 -10.58616,-21.47928 -15.38808,-32.44512 -3.98064,-9.09 -7.66032,-18.34872 -10.42776,-27.88872 -2.66712,-9.19512 -4.47384,-18.72384 -4.30704,-28.3332 0.18864,-10.95 3.15864,-21.5316 8.26992,-31.19448 2.94,-5.55744 6.48456,-10.77096 10.29,-15.7668 3.97104,-5.21616 8.08872,-11.07744 12.8484,-15.60192 -14.09352,42.49224 -1.758,69.07416 20.18712,92.87352 3.79872,4.12032 7.5384,8.32224 11.05872,12.68352 5.84904,7.24584 11.05104,16.3704 13.48224,25.3752 2.6448,9.79416 2.0952,20.2932 1.1904,30.2964 -1.032,11.4072 -2.6856,22.464 -2.34,33.9696 0.2856,9.468 0.8016,20.076 5.052,28.7688 -1.8792,-3.8424 -1.6824,-9.8784 -1.8216,-14.0232 -0.4056,-12.1344 0.5568,-24.48 1.7232,-36.5544 1.2936,-13.4136 4.4256,-26.67168 4.7256,-40.1988 0.5184,-23.09616 -10.6632,-46.27872 -28.61736,-60.61224 1.56648,1.24968 6.74424,1.15704 8.78712,1.57608 2.8752,0.59328 5.73024,1.29 8.53824,2.14296 9.1224,2.77512 18.1008,7.08384 25.692,12.8916 6.9192,5.29128 14.4264,12.15672 19.3752,19.22544 4.3032,6.15552 6.9264,12.41256 9.7896,19.42392 9.3168,22.79664 9.5136,54.03024 5.4552,78.08064 28.2,-96.00096 -55.7712,-159.16488 -81.52608,-158.5968 3.61008,-0.0797 7.20264,-0.0271 10.8,0.29712 5.61552,0.49968 11.31168,1.3848 16.54848,3.54672 5.0616,2.09064 9.6384,5.112 14.2344,8.04744 6.2424,3.9852 12.3888,8.12904 18.264,12.64392 8.4912,6.52992 16.428,13.86576 22.9896,22.3596 6.8832,8.91 12.0888,19.032 15.06,29.90712 3.3216,12.16488 3.8112,24.88128 2.7864,37.39728 -0.5688,6.9504 -1.5864,13.8552 -2.8128,20.7192 -0.636,3.552 -1.3272,7.0968 -2.0448,10.632 -0.6984,3.4344 -1.0008,7.4448 -2.2368,10.7184 C 343.7304,220.61808 311.4,175.93512 270.7104,149.90808 264.324,140.0784 248.64,114.36288 239.12616,88.43904 c 5.93304,26.10744 18.67704,48.19224 24.44424,57.21288 -1.62,-0.86904 -5.52,-4.13544 -14.1336,-6.97776 C 227.57808,108.1248 213.28128,57.27288 230.13192,28.76256 239.34648,13.166256 256.3704,4.81032 279.9864,4.076256 262.5216,7.437192 251.1216,14.349384 245.3952,24.96096 c -14.98584,27.76128 14.2944,74.41032 37.8168,111.89424 10.308,16.42128 28.8528,40.81896 28.8528,40.81896 -3.5064,-10.02576 -15.0384,-26.35224 -25.4568,-42.94968 -3.684,-5.87352 -8.0616,-11.51736 -10.4832,-18.07896 -2.328,-6.31392 -2.6016,-13.31712 -1.1688,-19.88232 1.9344,-8.86128 6.1776,-16.90416 12.42,-20.85768 5.5896,-3.53616 18.9096,-5.68104 26.3184,0.12576 -2.8992,-0.1968 -9.7032,-0.85224 -12.7728,0.40224 -9.924,4.062 -15.6408,9.55488 -17.4768,16.79232 -4.1712,16.44864 13.2864,37.79352 31.7664,60.38928 15.4512,18.89808 29.3256,38.13456 31.3824,54.38712 -5.5608,-8.91672 -10.2096,-13.63608 -13.7232,-17.37936 -10.2768,-10.94352 -25.3536,-13.26936 -25.7976,-12.99768 l -1.0632,0.64416 0.8568,0.9048 c 28.344,31.08456 24.42,95.25384 24.42,95.25384 1.584,-1.9248 6.096,-61.91352 -20.2344,-93.45384 3.312,0.64032 10.7352,3.77616 19.6464,12.40872 12.4728,12.08064 48.804,59.49072 13.5168,121.90032 l 3.2952,-1.1136 c 28.6224,-34.5144 27.9288,-71.0784 21.276,-97.34736 5.112,11.29488 8.028,21.64392 9.2496,31.19856 -0.0672,0.0576 -0.1344,0.1104 -0.204,0.1704 l 0.4176,1.5312 c 7.824,72.6888 -83.5152,98.64 -57.576,143.3472 -18.1584,-44.928 69.2712,-74.8536 60.4032,-141.6096 25.6368,-21.69648 50.3184,-24.86448 65.6136,-22.0932 12.204,2.2116 23.7288,7.94736 30.4344,13.854 -45.8568,-23.93112 -73.4736,11.9424 -80.3616,21.5352 -6.048,4.4904 -26.544,48.7728 -38.4504,62.4336 13.2072,-8.0208 36.1896,-54.9552 42.2352,-59.448 l -0.2088,-0.1656 c 0.0504,-0.048 0.0984,-0.0936 0.1512,-0.1416 l 0.0576,0.3072 c 9.4152,-8.1864 26.3664,-11.244 36,-10.8552 -11.5584,6.3072 -20.1168,19.9392 -28.4448,33.204 -7.776,12.396 -17.2464,27.1992 -25.9776,31.4184 0,0 -4.872,2.0064 -7.5432,2.6232 7.356,-6.9816 18.0912,-21.204 23.6256,-35.112 -7.98,14.784 -21.7536,30.6336 -29.7312,37.2264 -9.6768,3.6864 -20.5488,10.1712 -24.2448,14.688 5.3616,-3.5736 20.0304,-10.296 30.672,-12.816 l 0.0144,0.0672 c 29.9088,-6.6696 50.1264,-29.2176 59.5104,-42.0456 -11.1384,33.432 -56.22,54.828 -60.2616,56.652 -3.5208,1.68 -13.4736,5.16 -13.4736,5.16 25.0968,-0.2472 49.584,-13.476 58.1088,-20.5248 -6.2448,15.4104 -24.1176,21.7296 -41.472,27.864 -9.9336,3.5112 -19.3224,6.8304 -26.0904,11.7624 l 0.0504,0.0696 c -10.476,7.5384 -16.8384,21.36 -18.648,28.8768 -2.7192,-2.28 -4.7328,-6.2976 -6.2112,-10.6512 3.1776,-14.9448 17.892,-36.0576 40.4304,-27.2448 -19.8816,-10.6008 -37.3776,6.3336 -41.6256,23.2824 -0.3312,-1.2504 -0.6288,-2.4912 -0.8856,-3.6888 -2.508,6.0144 -1.2552,19.0488 -1.2552,19.0488 -1.3656,-0.0768 -1.0584,0.1176 -2.2944,-0.3408 -28.536,-35.2512 9.3216,-41.844 9.9408,-71.3472 -5.1528,30.0528 -38.8392,34.9728 -16.236,68.1264 -8.7024,-6.9936 -12.9648,-21.7944 -12.9648,-21.7944 -1.7568,13.9992 8.5224,26.5296 8.5224,26.5296 -1.8576,-1.5888 -3.8784,-3 -5.9832,-4.2576 -0.3768,-0.5928 -0.828,-1.1712 -1.3152,-1.74 l 0.0672,0.0552 c -0.8928,-1.6344 -5.3136,-9.468 -6.6552,-11.4768 -2.6688,-13.9776 -1.5888,-35.1144 26.1672,-64.716 -28.7376,25.6704 -30.6408,47.736 -28.8792,60.6336 -6.3744,-9.7344 -13.7256,-22.8864 -9.7224,-39.0768 -7.8408,21.8784 8.6112,40.4616 14.244,50.376 -0.8616,-0.6024 -1.8,-1.1856 -2.7792,-1.7616 -7.5552,-7.3872 -25.3776,-24.5856 -34.704,-34.5408 -4.6896,-16.8624 -15.2184,-54.2832 14.2176,-75.3072 -31.8864,18.2568 -22.2552,54.6216 -17.5104,71.724 -0.0168,-0.0216 -0.0336,-0.0384 -0.0504,-0.0576 -5.8056,-9.2448 -20.1648,-43.3944 -20.1648,-43.3944 3.2256,13.4928 9.948,26.184 14.3952,36.7296 -22.02072,-26.5416 -40.08072,-62.2896 -11.93136,-95.9472 -48.09,49.416 25.11456,115.98 45.59616,135.96 -1.284,-0.5112 -2.6016,-1.0128 -3.9696,-1.5072 -5.004,-6.5232 -36.2496,-33.4944 -48.32592,-53.3856 9.11952,19.5552 37.15152,44.9856 41.51712,51.1128 -1.968,-0.6192 -3.9744,-1.2288 -6.0552,-1.8264 -4.1616,-3.4824 -14.4168,-11.7744 -24.6912,-23.4168 0.0216,0.007 0.0432,0.012 0.06,0.0168 l -0.6624,-0.72 c -16.068,-18.4224 -31.85184,-44.9496 -23.9796,-73.9608 -9.51744,25.9512 1.69776,50.0736 15.2448,67.8432 -2.16,-0.768 -4.63872,-1.7328 -7.02192,-2.8632 -22.30776,-19.2 -29.32032,-53.4288 -29.32032,-53.4288 2.64552,25.2192 16.76352,43.1712 23.55,50.4816 -20.2848,-11.136 -47.46936,-34.248 -32.40576,-68.9784 -22.58328,46.416 28.84896,72.1248 49.15896,79.7592 7.26024,8.6616 14.83464,15.7176 19.84344,20.1336 -14.5992,-8.8848 -43.5024,-23.1528 -54.12984,-33.0408 8.60064,11.6016 44.70984,29.1144 51.97464,34.8576 -3.4944,-0.8832 -7.0704,-1.7544 -10.6944,-2.6184 l 0.0576,0.01 c -14.03592,-8.0184 -78.76944,-37.1376 -60.10464,-95.1624 -23.69616,55.0224 34.99776,84.2136 50.5668,92.9088 -27.85224,-6.5448 -56.57616,-13.2264 -70.73616,-23.7288 26.06712,26.2656 113.5068,26.76 132.9756,46.8576 -11.196,-5.0016 -22.4352,-6.3072 -22.4352,-6.3072 15.2904,4.4568 17.544,11.3352 17.544,11.3352 -25.9392,-11.5224 -52.6368,-9.5256 -52.6368,-9.5256 7.7712,0 20.5944,4.176 20.5944,4.176 -14.5368,3.636 -38.05776,-4.176 -45.1584,11.2608 22.05768,-20.7 89.736,11.8848 122.5704,-3.4848 -1.3704,0.1392 -2.616,-0.1152 -3.768,-0.6432 1.512,-6.2304 7.3368,-17.0712 15.8712,-24.8208 16.2672,-3.4584 24.3816,12.5952 24.3048,16.6464 -23.1216,-24.2712 -34.5696,-0.9624 -33.9,10.5672 l 2.9232,0 c 3.2688,-32.7672 30.7032,-12.2976 33.0432,-4.6152 0,0 0.144,-24.3192 -21.5304,-25.9032 3.9,-2.6112 8.1768,-4.428 13.464,-6.4776 3.1248,1.7232 8.2128,5.4 9.3624,11.5152 1.1424,-3.852 -0.9336,-10.032 -3.7728,-13.5888 1.4136,-0.5088 2.8392,-1.0176 4.2864,-1.5288 19.752,-6.984 42.144,-14.8992 45.9144,-37.5264 l 1.0944,-6.5712 -4.5408,4.8744 c -0.1608,0.1752 -12.6144,13.2912 -33.0264,19.6752 18.2016,-10.7616 49.5336,-33.8904 52.5432,-66.768 0,0 -19.2768,29.5488 -46.788,44.1096 6.5184,-6.9288 12.1416,-15.8856 17.6376,-24.6384 10.2912,-16.4016 20.0136,-33.0264 34.524,-35.6784 0,0 -14.5032,-8.2512 -36.372,0.8136 35.3736,-35.33712 77.2176,-6.9384 77.2176,-6.9384 M 371.472,354.8112 c -22.7688,-9.8232 -38.8944,0.2856 -43.7832,13.9872 3.7608,-17.2944 23.7312,-27.1968 43.7832,-13.9872 m -26.82,67.1616 c -19.0488,12.9432 -32.0208,11.6688 -43.2264,11.2008 -13.9776,-0.5856 -54.5304,-24.6456 -73.32912,-22.14 0,0 7.94904,-5.1984 40.60752,7.2696 18.3816,7.0176 36.4296,-1.0032 55.98,0.6672 0,0 -25.0008,2.3184 -32.0832,5.6832 -0.6504,0.3072 -0.3096,0.8184 0.8112,1.3824 33.5448,-1.5624 43.9032,-10.5096 61.14,-11.1168 -14.532,1.128 -24.7872,10.6656 -52.2288,13.392 10.0728,1.4256 26.3304,1.1544 42.3288,-6.3384 M 288.2544,293.9784 c -11.7384,15.7464 -15.5832,46.572 -16.2336,54.2424 5.1192,10.1544 12.144,18.564 15.4824,23.46 l -5.172,-1.9056 c -11.28,-16.5432 -49.57152,-74.9616 11.1888,-99.936 -39.3048,19.116 -34.2192,49.4616 -23.2272,73.2768 0.7176,-7.4328 5.6736,-34.7448 17.9616,-49.1376 m -61.74408,-32.7552 -0.41808,0 c 0,-17.544 -18.79872,-45.70128 -21.05544,-56.22768 3.73416,9.66 24.98256,36.34368 21.47352,56.22768 M 327.6888,310.284 c -16.3752,20.6232 -23.7888,47.6808 -26.0256,60.5808 -0.708,-14.1384 8.3136,-40.4304 26.0256,-60.5808 m -122.48496,63.7368 c 0,0 13.46232,3.9792 30.63936,5.784 -29.31096,-6.72 -72.2484,-21.0744 -88.49544,-46.4736 29.79192,35.3424 102.55704,46.872 123.86184,50.3808 l -2.8728,2.1648 c -3.5016,-0.576 -8.3232,-1.3248 -14.0376,-2.3424 l 0.01,0.005 c 0,0 -28.5504,0.3408 -49.10496,-9.5184 M 134.85288,207.74448 c 1.3368,46.96272 27.1968,66.68352 40.23096,78.46512 l -2.63256,1.1304 c -13.03416,-11.7816 -40.27224,-32.6448 -37.5984,-79.59552 m -31.5816,78.46512 c 42.3852,48.5424 108.36552,71.8512 119.64456,76.7808 -11.77968,-3.7584 -83.88456,-22.7256 -119.64456,-76.7808 M 77.45256,354.888 c 21.53424,17.628 71.93808,29.076 83.46936,31.9056 l -7.51968,0 C 141.87192,383.964 94.62096,374.256 77.45256,354.888 m 172.70184,81.6288 c -14.20536,-3.6192 -53.13888,-2.172 -68.01024,-1.6704 20.15616,-3.6864 37.36584,-3.8184 49.482,-2.6664 -18.36744,-10.1256 -52.7568,-45.7464 -96.77328,-42.9096 45.68904,-8.0928 83.42904,33.6864 101.97192,43.5192 7.3488,1.0416 12.0408,2.544 13.3296,3.7272 m -27.23856,-22.224 0,0.6264 c -9.85776,-9.6072 -30.99648,-29.5776 -61.99392,-27.528 26.65224,-7.7448 56.27256,16.248 61.99392,26.9016 M 92.2416,414.9192 c 35.84424,17.1432 93.47904,4.596 117.79224,10.1088 -23.41968,-2.5896 -84.20448,12.2016 -117.79224,-10.1088 m 171.9504,42.3192 c -23.196,-29.316 -79.87488,-2.34 -107.03136,-2.6736 29.66256,-4.68 83.19936,-30.024 107.03136,2.6736 M 106.0284,446.8776 c 45.0348,25.5672 128.08512,-10.3608 147.1356,6.0168 -16.54464,-12.7824 -102.6924,24.2904 -147.1356,-6.0168 m 62.0784,27.7392 c 0,0 14.538,2.0064 24.39768,10.0248 0,0 2.67264,-14.0352 11.86392,-19.5504 0,0 -14.87256,24.5232 -2.33904,43.3224 -5.01384,0.336 -31.08288,5.9328 -51.30096,2.1096 6.68352,0.1872 23.72712,-2.652 25.56672,-3.1536 -2.0064,-2.34 -29.41128,-7.1832 -36.34512,-6.6 7.43616,-2.256 20.80512,-3.2592 31.1652,-3.2592 -12.03168,-1.5024 -13.452,-8.1888 -23.66712,-11.8632 9.79704,-1.9224 24.3348,8.7312 35.02968,8.7312 -4.17744,-2.676 -27.23904,-22.6008 -53.64096,-18.9264 4.84608,-2.5056 24.2316,-5.0112 56.8164,10.0272 0,0 -9.52512,-9.6936 -17.5464,-10.8624 m 174.7908,11.7408 c -10.2768,-13.2864 -32.0856,-39.48 -45.8712,-46.2456 19.4256,5.136 41.1072,34.0872 45.8712,46.2456 m -22.3464,-20.0544 c 6.8232,9.1872 29.364,33.588 18.084,32.2104 -12.6336,-1.5456 -13.7304,-28.0056 -33.336,-42.2784 -6.0288,-4.3872 7.896,0.168 15.252,10.068 m 13.1544,59.0016 4.4832,1.8384 c -4.6464,7.632 -19.6872,19.1616 -37.9032,19.1616 13.8696,-3.5064 29.4096,-13.368 33.42,-21 M 273.9672,491.244 c 18.5496,-0.5016 37.0968,9.5256 37.0968,9.5256 -13.536,-9.5256 -22.308,-40.1064 -50.8824,-41.5272 14.2872,10.6128 13.7856,32.0016 13.7856,32.0016" /></g></svg>