<?xml version="1.0" encoding="UTF-8" standalone="no"?>
<!-- Created with Inkscape (http://www.inkscape.org/) -->

<svg
   xmlns:dc="http://purl.org/dc/elements/1.1/"
   xmlns:cc="http://creativecommons.org/ns#"
   xmlns:rdf="http://www.w3.org/1999/02/22-rdf-syntax-ns#"
   xmlns:svg="http://www.w3.org/2000/svg"
   xmlns="http://www.w3.org/2000/svg"
   xmlns:xlink="http://www.w3.org/1999/xlink"
   xmlns:sodipodi="http://sodipodi.sourceforge.net/DTD/sodipodi-0.dtd"
   xmlns:inkscape="http://www.inkscape.org/namespaces/inkscape"
   width="80"
   height="80"
   id="svg2"
   version="1.1"
   inkscape:version="0.48.5 r10040"
   sodipodi:docname="icon.svg"
   inkscape:export-filename="/home/amirouche/src/hypercraft.io/jquery-reactive-menu/jquery-reactive-menu-logo.png"
   inkscape:export-xdpi="90"
   inkscape:export-ydpi="90">
  <defs
     id="defs4">
    <linearGradient
       inkscape:collect="always"
       id="linearGradient4294">
      <stop
         style="stop-color:#3e4952;stop-opacity:1;"
         offset="0"
         id="stop4296" />
      <stop
         style="stop-color:#3e4952;stop-opacity:0;"
         offset="1"
         id="stop4298" />
    </linearGradient>
    <linearGradient
       id="linearGradient4286">
      <stop
         style="stop-color:#27d6bd;stop-opacity:0;"
         offset="0"
         id="stop4288" />
      <stop
         style="stop-color:#27d6bd;stop-opacity:1;"
         offset="1"
         id="stop4290" />
    </linearGradient>
    <style
       id="style3372"
       type="text/css">
    .fil1 {fill:#1F1A17}
    .fil0 {fill:white}
   </style>
    <linearGradient
       inkscape:collect="always"
       xlink:href="#linearGradient4286"
       id="linearGradient4292"
       x1="-21.452862"
       y1="1005.4805"
       x2="-21.434246"
       y2="1001.8555"
       gradientUnits="userSpaceOnUse" />
    <filter
       inkscape:collect="always"
       id="filter4579"
       color-interpolation-filters="sRGB">
      <feGaussianBlur
         inkscape:collect="always"
         stdDeviation="0.31447619"
         id="feGaussianBlur4581" />
    </filter>
    <linearGradient
       inkscape:collect="always"
       xlink:href="#linearGradient4286"
       id="linearGradient4589"
       x1="-20.023502"
       y1="1013.3899"
       x2="-20.148502"
       y2="1004.3754"
       gradientUnits="userSpaceOnUse" />
    <filter
       inkscape:label="Simple blur"
       inkscape:menu="ABCs"
       inkscape:menu-tooltip="Simple Gaussian blur, same as the blur slider in Fill and Stroke dialog"
       color-interpolation-filters="sRGB"
       id="filter4691">
      <feGaussianBlur
         stdDeviation="3"
         id="feGaussianBlur4693" />
    </filter>
    <linearGradient
       inkscape:collect="always"
       xlink:href="#linearGradient4286"
       id="linearGradient4701"
       x1="-19.491016"
       y1="1029.5149"
       x2="-19.491016"
       y2="997.76483"
       gradientUnits="userSpaceOnUse"
       gradientTransform="translate(97.5,0)" />
    <filter
       inkscape:collect="always"
       id="filter4707"
       color-interpolation-filters="sRGB">
      <feGaussianBlur
         inkscape:collect="always"
         stdDeviation="0.16604343"
         id="feGaussianBlur4709" />
    </filter>
    <linearGradient
       inkscape:collect="always"
       xlink:href="#linearGradient4294"
       id="linearGradient3095"
       gradientUnits="userSpaceOnUse"
       gradientTransform="matrix(1,0,0,0.85861182,97.5,147.81858)"
       x1="-15.827862"
       y1="1011.9812"
       x2="-15.827862"
       y2="997.07648" />
    <linearGradient
       inkscape:collect="always"
       xlink:href="#linearGradient4286"
       id="linearGradient3097"
       gradientUnits="userSpaceOnUse"
       gradientTransform="translate(97.5,0)"
       x1="-19.491016"
       y1="1029.5149"
       x2="-19.491016"
       y2="997.76483" />
    <linearGradient
       inkscape:collect="always"
       xlink:href="#linearGradient4286"
       id="linearGradient3111"
       gradientUnits="userSpaceOnUse"
       gradientTransform="translate(56.5,5)"
       x1="-19.491016"
       y1="1029.5149"
       x2="-19.491016"
       y2="997.76483" />
    <linearGradient
       inkscape:collect="always"
       xlink:href="#linearGradient4294"
       id="linearGradient3114"
       gradientUnits="userSpaceOnUse"
       gradientTransform="matrix(1,0,0,0.85861182,56.5,152.81858)"
       x1="-15.827862"
       y1="1011.9812"
       x2="-15.827862"
       y2="997.07648" />
    <filter
       inkscape:collect="always"
       id="filter4707-5"
       color-interpolation-filters="sRGB">
      <feGaussianBlur
         inkscape:collect="always"
         stdDeviation="0.16604343"
         id="feGaussianBlur4709-6" />
    </filter>
    <filter
       inkscape:collect="always"
       id="filter4047">
      <feGaussianBlur
         inkscape:collect="always"
         stdDeviation="0.25836629"
         id="feGaussianBlur4049" />
    </filter>
    <filter
       inkscape:collect="always"
       id="filter4067">
      <feGaussianBlur
         inkscape:collect="always"
         stdDeviation="0.1967102"
         id="feGaussianBlur4069" />
    </filter>
    <filter
       inkscape:collect="always"
       id="filter4075">
      <feGaussianBlur
         inkscape:collect="always"
         stdDeviation="0.24811682"
         id="feGaussianBlur4077" />
    </filter>
    <filter
       inkscape:collect="always"
       id="filter4083">
      <feGaussianBlur
         inkscape:collect="always"
         stdDeviation="0.645914"
         id="feGaussianBlur4085" />
    </filter>
    <filter
       inkscape:collect="always"
       id="filter4091"
       x="-0.25363747"
       width="1.5072749"
       y="-0.03402437"
       height="1.0680487">
      <feGaussianBlur
         inkscape:collect="always"
         stdDeviation="0.42680454"
         id="feGaussianBlur4093" />
    </filter>
    <filter
       inkscape:collect="always"
       id="filter4099"
       x="-0.04162953"
       width="1.0832591"
       y="-0.10738919"
       height="1.2147784">
      <feGaussianBlur
         inkscape:collect="always"
         stdDeviation="0.62029211"
         id="feGaussianBlur4101" />
    </filter>
  </defs>
  <sodipodi:namedview
     id="base"
     pagecolor="#ffffff"
     bordercolor="#666666"
     borderopacity="1.0"
     inkscape:pageopacity="0.0"
     inkscape:pageshadow="2"
     inkscape:zoom="11.313708"
     inkscape:cx="54.814171"
     inkscape:cy="44.081251"
     inkscape:document-units="px"
     inkscape:current-layer="layer1"
     showgrid="false"
     inkscape:window-width="1920"
     inkscape:window-height="1014"
     inkscape:window-x="0"
     inkscape:window-y="27"
     inkscape:window-maximized="1"
     showguides="true"
     inkscape:guide-bbox="true"
     inkscape:snap-global="false"
     fit-margin-top="0"
     fit-margin-left="0"
     fit-margin-right="0"
     fit-margin-bottom="0">
    <sodipodi:guide
       orientation="1,0"
       position="-445.93145,227.75745"
       id="guide2984" />
  </sodipodi:namedview>
  <metadata
     id="metadata7">
    <rdf:RDF>
      <cc:Work
         rdf:about="">
        <dc:format>image/svg+xml</dc:format>
        <dc:type
           rdf:resource="http://purl.org/dc/dcmitype/StillImage" />
        <dc:title></dc:title>
      </cc:Work>
    </rdf:RDF>
  </metadata>
  <g
     inkscape:label="Calque 1"
     inkscape:groupmode="layer"
     id="layer1"
     transform="translate(0.06855392,-973.11963)">
    <flowRoot
       xml:space="preserve"
       id="flowRoot4224"
       style="font-size:40px;font-style:normal;font-weight:normal;line-height:125%;letter-spacing:0px;word-spacing:0px;fill:#000000;fill-opacity:1;stroke:none;font-family:Sans"
       transform="translate(0,972.36218)"><flowRegion
         id="flowRegion4226"><rect
           id="rect4228"
           width="22.25"
           height="53"
           x="87.75"
           y="49.5" /></flowRegion><flowPara
         id="flowPara4230" /></flowRoot>    <rect
       rx="4.7619047"
       style="fill:#252f38;fill-opacity:1;stroke:none"
       id="rect2987"
       width="80"
       height="80"
       x="-0.068553925"
       y="973.11963"
       ry="4.7619047"
       inkscape:export-filename="/home/amirouche/src/hypercraft.io/jquery-reactive-menu/jquery-reactive-menu-logo.png"
       inkscape:export-xdpi="90"
       inkscape:export-ydpi="90" />
    <rect
       ry="4.7619047"
       y="973.48053"
       x="0.54713821"
       height="77"
       width="78.768616"
       id="rect3438"
       style="fill:#3e4952;fill-opacity:1;stroke:none"
       rx="4.7619047"
       inkscape:export-filename="/home/amirouche/src/hypercraft.io/jquery-reactive-menu/jquery-reactive-menu-logo.png"
       inkscape:export-xdpi="90"
       inkscape:export-ydpi="90" />
    <g
       id="g4260"
       transform="matrix(1.6346577,0,0,1.6346577,71.711961,-608.56613)"
       style="filter:url(#filter4707-5)"
       inkscape:export-filename="/home/amirouche/src/hypercraft.io/jquery-reactive-menu/jquery-reactive-menu-logo.png"
       inkscape:export-xdpi="90"
       inkscape:export-ydpi="90">
      <path
         style="fill:#ffffff;fill-opacity:1;fill-rule:evenodd;filter:url(#filter4067)"
         inkscape:connector-curvature="0"
         class="fil0"
         d="m -14.252672,989.50951 c 0,4.18336 -0.316517,8.05258 -0.853238,11.20159 l -1.558674,-1.5587 c 0.330785,-2.55998 0.531755,-5.93865 0.531755,-9.64289 0,-7.99098 -0.936079,-14.47124 -2.090338,-14.47124 -1.15426,0 -2.090356,6.48026 -2.090356,14.47124 0,3.20118 0.150565,6.15913 0.404866,8.55598 l -2.52233,2.52231 c -0.524043,-3.12638 -0.832415,-6.9497 -0.832415,-11.07829 0,-10.56312 2.017521,-19.12972 4.505374,-19.12972 2.487854,0 4.505356,8.5666 4.505356,19.12972 z"
         id="path3376" />
      <path
         style="fill:#27d6bd;fill-opacity:1;fill-rule:evenodd"
         inkscape:connector-curvature="0"
         class="fil1"
         d="m -14.89488,989.50951 c 0,3.56378 -0.222588,6.88548 -0.606992,9.68019 l -0.563395,-0.56338 c 0.333005,-2.55068 0.529713,-5.70357 0.529713,-9.11681 0,-8.48563 -1.21671,-15.3671 -2.717448,-15.3671 -1.50063,0 -2.717448,6.88147 -2.717448,15.3671 0,2.9668 0.149048,5.7368 0.406635,8.08581 l -1.466966,1.46696 c -0.373676,-2.76814 -0.590322,-6.04268 -0.590322,-9.55277 0,-9.92946 1.729971,-17.98186 3.863111,-17.98186 2.13314,0 3.863112,8.0524 3.863112,17.98186 z"
         id="path3378" />
      <path
         style="fill:#ffffff;fill-opacity:1;fill-rule:evenodd;filter:url(#filter4047)"
         inkscape:connector-curvature="0"
         class="fil0"
         d="m -20.298985,993.7431 c -9.926094,-3.6128 -17.286044,-8.4386 -16.435154,-10.77641 0.704749,-1.93625 6.821117,-1.55941 14.540856,0.67968 l -1.202028,2.68305 c -5.079966,-1.51817 -8.844579,-2.09003 -9.14421,-1.26683 -0.394771,1.08464 5.374504,4.18066 12.883575,6.91373 7.509089,2.73309 13.9186943,4.06982 14.3134647,2.98519 0.2872781,-0.78931 -2.6901599,-2.64373 -7.2262897,-4.6483 l 1.185991,-2.64729 c 6.8084927,3.131 11.27386407,6.53698 10.60077327,8.38627 -0.85089007,2.33782 -9.59090227,1.30371 -19.51692427,-2.30909 z"
         id="path3380" />
      <path
         style="fill:#27d6bd;fill-opacity:1;fill-rule:evenodd"
         inkscape:connector-curvature="0"
         class="fil1"
         d="m -20.079323,993.13954 c -9.330642,-3.39607 -16.305737,-7.7758 -15.576155,-9.7803 0.594584,-1.6336 6.123446,-1.18612 13.199478,0.87352 l -0.677985,1.51333 c -5.603756,-1.62819 -9.838828,-2.11238 -10.237156,-1.018 -0.51328,1.41022 5.537061,4.90717 13.510938,7.80942 7.973878,2.90226 14.8564884,4.11252 15.3697676,2.7023 0.3813158,-1.04762 -2.8606449,-3.24704 -7.8220306,-5.49872 l 0.670563,-1.4968 c 6.2472468,2.85479 10.3492358,5.85475 9.7812534,7.41527 -0.729582,2.00449 -8.8880314,0.87606 -18.2186014,-2.52002 z"
         id="path3382" />
      <path
         style="fill:#ffffff;fill-opacity:1;fill-rule:evenodd;filter:url(#filter4083)"
         inkscape:connector-curvature="0"
         class="fil0"
         d="m -20.298985,985.27579 c 9.926076,-3.6128 18.6661243,-4.64693 19.51692409,-2.3091 0.71063724,1.95245 -4.30639049,5.64008 -11.76162509,8.90734 l -0.98289,-2.75276 c 5.0689684,-2.15997 8.4910942,-4.2203 8.1840405,-5.06389 -0.3947704,-1.08464 -6.8043755,0.2521 -14.3134645,2.98517 -7.509071,2.73309 -13.278346,5.82911 -12.883575,6.91374 0.28009,0.76952 3.588186,0.31992 8.168002,-0.98209 l 0.976605,2.73516 c -7.145038,1.93512 -12.67148,2.17743 -13.339226,0.34283 -0.85089,-2.33783 6.509061,-7.16362 16.435155,-10.7764 z"
         id="path3384" />
      <path
         style="fill:#27d6bd;fill-opacity:1;fill-rule:evenodd"
         inkscape:connector-curvature="0"
         class="fil1"
         d="m -20.079323,985.87931 c 9.330642,-3.39608 17.4890914,-4.52453 18.2186011,-2.52003 0.6011584,1.65166 -4.0292259,4.91584 -10.8975871,7.9137 l -0.553824,-1.55105 c 5.5195073,-2.40189 9.2279901,-4.82643 8.8216253,-5.94289 -0.5132791,-1.41022 -7.3958903,-0.19996 -15.3697673,2.7023 -7.973877,2.90223 -14.024218,6.3992 -13.510939,7.80942 0.373586,1.02643 4.122361,0.66415 9.20975,-0.72806 l 0.552848,1.54832 c -6.516411,1.77747 -11.485038,2.09233 -12.046935,0.54857 -0.729582,-2.0045 6.245514,-6.38421 15.576156,-9.78028 z"
         id="path3386" />
      <path
         style="fill:#ffffff;fill-opacity:1;fill-rule:evenodd;filter:url(#filter4099)"
         inkscape:connector-curvature="0"
         class="fil0"
         d="m -36.478809,982.56286 c 1.708408,-1.79234 9.96476,-0.67087 19.261738,2.71293 9.2969246,3.38378 16.34232692,7.83173 16.49896004,10.30286 L -6.6629998,993.4149 c -2.0871414,-1.44974 -6.4157992,-3.49372 -11.5629852,-5.36714 -5.147185,-1.87342 -9.777388,-3.0902 -12.308098,-3.32123 l -5.944654,-2.16367 z"
         id="path3390" />
      <path
         style="fill:#27d6bd;fill-opacity:1;fill-rule:evenodd"
         inkscape:connector-curvature="0"
         class="fil1"
         d="m -1.9392822,995.8189 -2.544146,-0.926 c -0.4020846,-1.57836 -6.1351138,-4.77528 -13.5179458,-7.46241 -7.382851,-2.68714 -13.829298,-3.92318 -15.151857,-2.97254 l -2.544237,-0.92602 c 0.0085,-0.0592 0.02173,-0.11696 0.04197,-0.17258 0.729582,-2.0045 8.888031,-0.87605 18.218601,2.52004 9.3306418,3.39606 16.3057371,7.77577 15.5761551,9.78027 -0.020245,0.0556 -0.047118,0.10847 -0.078615,0.15924 z"
         id="path3392" />
      <path
         style="fill:#ffffff;fill-opacity:1;fill-rule:evenodd;filter:url(#filter4075)"
         inkscape:connector-curvature="0"
         class="fil0"
         d="m -0.71807484,983.44017 c -0.15661506,2.47113 -7.20219796,6.91912 -16.49912216,10.30293 -9.296907,3.3838 -17.553096,4.50519 -19.261558,2.71286 l 5.944889,-2.16375 c 2.530709,-0.23104 7.160498,-1.44766 12.307683,-3.32108 5.147185,-1.87342 9.4762585,-3.91757 11.5633999,-5.3673 l 5.94463602,-2.16366 z"
         id="path3394" />
      <path
         style="fill:#27d6bd;fill-opacity:1;fill-rule:evenodd"
         inkscape:connector-curvature="0"
         class="fil1"
         d="m -35.697612,995.48714 2.544146,-0.92599 c 1.322559,0.95064 7.769259,-0.2855 15.15211,-2.97263 7.382833,-2.68713 13.1156084,-5.88397 13.517693,-7.46233 l 2.5442363,-0.92602 c 0.031496,0.0508 0.058532,0.10354 0.078777,0.15916 0.729582,2.0045 -6.2455133,6.38423 -15.5761553,9.7803 -9.330642,3.39608 -17.489091,4.52451 -18.218601,2.52002 -0.02025,-0.0556 -0.03363,-0.11337 -0.04213,-0.17251 z"
         id="path3396" />
      <path
         style="fill:#ffffff;fill-opacity:1;fill-rule:evenodd;filter:url(#filter4091)"
         inkscape:connector-curvature="0"
         class="fil0"
         d="m -22.430752,1000.5874 c -0.524043,-3.12628 -0.832686,-6.94943 -0.832686,-11.07802 0,-9.89357 1.770028,-18.03537 4.038563,-19.02768 l 0,6.32642 c -0.648457,2.45711 -1.088684,7.2238 -1.088684,12.70131 0,3.20102 0.150818,6.15914 0.405136,8.55572 l -2.522329,2.52235 z"
         id="path3398" />
      <path
         style="fill:#27d6bd;fill-opacity:1;fill-rule:evenodd"
         inkscape:connector-curvature="0"
         class="fil1"
         d="m -18.581619,971.54699 0,2.70743 c -1.345658,0.91767 -2.388976,7.39836 -2.388976,15.25501 0,2.9668 0.149048,5.7369 0.406636,8.08582 l -1.466966,1.46696 c -0.373677,-2.76814 -0.590323,-6.04268 -0.590323,-9.55278 0,-9.92945 1.729972,-17.98185 3.863112,-17.98185 0.05918,0 0.118021,0.007 0.176517,0.0194 z"
         id="path3400" />
    </g>
    <rect
       rx="4.7619047"
       style="fill:url(#linearGradient3114);fill-opacity:1;stroke:none"
       id="rect4282"
       width="78.768616"
       height="41.75"
       x="0.54713821"
       y="1008.7305"
       ry="4.7619042"
       inkscape:export-filename="/home/amirouche/src/hypercraft.io/jquery-reactive-menu/jquery-reactive-menu-logo.png"
       inkscape:export-xdpi="90"
       inkscape:export-ydpi="90" />
    <g
       id="g3923"
       transform="translate(0,14.5)"
       inkscape:export-filename="/home/amirouche/src/hypercraft.io/jquery-reactive-menu/jquery-reactive-menu-logo.png"
       inkscape:export-xdpi="90"
       inkscape:export-ydpi="90">
      <text
         sodipodi:linespacing="60.000002%"
         id="text4218"
         y="1018.0914"
         x="39.556641"
         style="font-size:24px;font-style:normal;font-variant:normal;font-weight:normal;font-stretch:normal;text-align:center;line-height:60.00000238%;letter-spacing:0px;word-spacing:0px;writing-mode:lr-tb;text-anchor:middle;fill:#ffffff;fill-opacity:1;stroke:none;font-family:League Gothic;-inkscape-font-specification:League Gothic"
         xml:space="preserve"><tspan
           style="font-size:24px;font-style:normal;font-variant:normal;font-weight:normal;font-stretch:normal;text-align:center;line-height:60.00000238%;writing-mode:lr-tb;text-anchor:middle;fill:#ffffff;font-family:League Gothic;-inkscape-font-specification:League Gothic"
           y="1018.0914"
           x="39.556641"
           id="tspan4220"
           sodipodi:role="line">reactive</tspan><tspan
           style="font-size:24px;font-style:normal;font-variant:normal;font-weight:normal;font-stretch:normal;text-align:center;line-height:60.00000238%;writing-mode:lr-tb;text-anchor:middle;fill:#ffffff;font-family:League Gothic;-inkscape-font-specification:League Gothic"
           id="tspan4222"
           y="1032.4913"
           x="39.556641"
           sodipodi:role="line">menu</tspan></text>
      <path
         d="m 48.21875,999.625 a 0.84084317,0.84084317 0 0 0 -0.75,0.8438 l 0,2.4062 a 0.84084317,0.84084317 0 0 0 0.84375,0.8438 l 2.4375,0 a 0.84084317,0.84084317 0 0 0 0.84375,-0.8438 l 0,-2.4062 A 0.84084317,0.84084317 0 0 0 50.75,999.625 l -2.4375,0 a 0.84084317,0.84084317 0 0 0 -0.09375,0 z m -5.34375,1.25 a 0.84084317,0.84084317 0 0 0 -0.75,0.8438 l 0,2.4062 -0.375,0 a 0.84084317,0.84084317 0 0 0 -0.84375,0.8438 l 0,0.2812 c -0.05612,-0.074 -0.06187,-0.1813 -0.125,-0.25 -0.705225,-0.7734 -1.77441,-1.0624 -2.96875,-1.0625 -1.124916,10e-5 -2.150884,0.3691 -2.84375,1.125 -0.534349,0.5771 -0.790068,1.3593 -0.9375,2.25 -0.104595,-0.8773 -0.433592,-1.6772 -1.0625,-2.2813 -0.721974,-0.693 -1.667504,-1.0936 -2.65625,-1.0937 -1.142943,10e-5 -2.188518,0.4675 -2.9375,1.3125 -0.647139,0.728 -0.969479,1.6358 -1.0625,2.5938 -0.05997,-0.5788 -0.180267,-1.1452 -0.40625,-1.6876 a 0.84084317,0.84084317 0 0 0 -0.03125,-0.031 c -0.633061,-1.3796 -1.935583,-2.1874 -3.46875,-2.1875 -0.892472,10e-5 -1.718445,0.1552 -2.34375,0.6875 -0.01127,0.01 -0.02009,0.022 -0.03125,0.031 -0.329666,0.279 -0.551048,0.6703 -0.78125,1.0313 l 0,-0.9063 a 0.84084317,0.84084317 0 0 0 -0.84375,-0.8437 c -0.637445,10e-5 -1.232451,0.194 -1.78125,0.5 a 0.84084317,0.84084317 0 0 0 -0.65625,-0.3125 l -2.4375,0 a 0.84084317,0.84084317 0 0 0 -0.84375,0.8438 l 0,13.125 a 0.84084317,0.84084317 0 0 0 0.84375,0.8437 l 2.4375,0 a 0.84084317,0.84084317 0 0 0 0.84375,-0.8437 l 0,-9.125 c -2e-6,-0.3096 0.03146,-0.3731 0.21875,-0.5313 a 0.84084317,0.84084317 0 0 0 0.03125,-0.031 c 0.0951,-0.09 0.273336,-0.1875 0.65625,-0.1874 0.199571,0 0.338249,0.04 0.40625,0.062 a 0.84084317,0.84084317 0 0 0 0.28125,0.031 l 0,6.5 a 0.84084317,0.84084317 0 0 0 0,0.031 c 0.02704,0.7031 0.170444,1.3866 0.4375,2.0312 a 0.84084317,0.84084317 0 0 0 0,0.031 c 0.552264,1.2301 1.711594,1.9257 3.03125,2.0938 a 0.84084317,0.84084317 0 0 0 -0.09375,0.375 l 0,13.125 a 0.84084317,0.84084317 0 0 0 0.84375,0.8438 l 2.40625,0 a 0.84084317,0.84084317 0 0 0 0.78125,-0.5313 0.84084317,0.84084317 0 0 0 0.78125,0.5313 l 2.28125,0 a 0.84084317,0.84084317 0 0 0 0.78125,-0.5313 0.84084317,0.84084317 0 0 0 0.78125,0.5313 l 2.28125,0 A 0.84084317,0.84084317 0 0 0 33.5625,1032.5 l 0,-3.0938 c 0.0416,0.6474 0.159659,1.2798 0.40625,1.875 a 0.84084317,0.84084317 0 0 0 0,0.031 c 0.626398,1.3951 1.9752,2.2187 3.53125,2.2187 0.916708,0 1.728147,-0.2056 2.34375,-0.7187 0.520924,-0.4167 0.92977,-0.9251 1.1875,-1.5 l -0.03125,0 c 0.268055,-0.5759 0.424937,-1.2104 0.46875,-1.9375 l 0,3.125 a 0.84084317,0.84084317 0 0 0 0.84375,0.8438 l 2.40625,0 a 0.84084317,0.84084317 0 0 0 0.6875,-0.3438 0.84084317,0.84084317 0 0 0 0.6875,0.3438 l 2.40625,0 a 0.84084317,0.84084317 0 0 0 0.84375,-0.8438 l 0,-10.7812 c -8e-6,-0.7644 -0.201085,-1.4685 -0.5625,-2.0938 a 0.84084317,0.84084317 0 0 0 0,-0.031 c -0.1597,-0.2627 -0.39427,-0.46 -0.625,-0.6563 a 0.84084317,0.84084317 0 0 0 0.15625,0 l 1.28125,0 a 0.84084317,0.84084317 0 0 0 -0.125,0.4375 l 0,10.75 c -10e-7,0.7767 0.187506,1.5067 0.5625,2.125 0.445851,0.7599 1.235335,1.2812 2.09375,1.2812 0.377013,0 0.739306,-0.1029 1.0625,-0.2812 0.08508,-0.046 0.166749,-0.1632 0.25,-0.2188 a 0.84084317,0.84084317 0 0 0 0.65625,0.3126 l 2.4375,0 A 0.84084317,0.84084317 0 0 0 57.375,1032.5 l 0,-13.125 a 0.84084317,0.84084317 0 0 0 -0.34375,-0.6875 0.84084317,0.84084317 0 0 0 0.25,-0.4687 l 1.4375,-8.75 0,5.3437 a 0.84084317,0.84084317 0 0 0 0,0.031 c 0.02704,0.7031 0.170444,1.3866 0.4375,2.0312 a 0.84084317,0.84084317 0 0 0 0,0.031 c 0.626398,1.3952 1.9752,2.2188 3.53125,2.2188 0.916637,0 1.728086,-0.2056 2.34375,-0.7188 0.505458,-0.4043 0.947871,-0.8957 1.21875,-1.5 l -0.03125,0 c 0.268098,-0.5759 0.424938,-1.2102 0.46875,-1.9374 a 0.84084317,0.84084317 0 0 0 0,-0.063 l 0,-1.5 a 0.84084317,0.84084317 0 0 0 -0.375,-0.7187 0.84084317,0.84084317 0 0 0 0.375,-0.7187 l 0,-3.8126 a 0.84084317,0.84084317 0 0 0 0,-0.031 c -0.02874,-0.6799 -0.20526,-1.3364 -0.46875,-1.9688 a 0.84084317,0.84084317 0 0 0 -0.03125,-0.031 c -0.633061,-1.3796 -1.935583,-2.1874 -3.46875,-2.1875 -0.892472,10e-5 -1.718445,0.1552 -2.34375,0.6875 -0.01127,0.01 -0.02009,0.022 -0.03125,0.031 -0.449106,0.3801 -0.798538,0.8794 -1.0625,1.4063 l 0.15625,-0.9687 a 0.84084317,0.84084317 0 0 0 -0.84375,-0.9688 l -2.375,0 a 0.84084317,0.84084317 0 0 0 -0.84375,0.75 l -0.125,1.3438 -0.15625,-1.3438 a 0.84084317,0.84084317 0 0 0 -0.84375,-0.75 l -2.34375,0 a 0.84084317,0.84084317 0 0 0 -0.5625,0.25 0.84084317,0.84084317 0 0 0 -0.03125,0 0.84084317,0.84084317 0 0 0 -0.5625,-0.25 l -2.4375,0 a 0.84084317,0.84084317 0 0 0 -0.625,0.3125 0.84084317,0.84084317 0 0 0 -0.03125,0 0.84084317,0.84084317 0 0 0 -0.625,-0.3125 l -0.78125,0 0,-2.4062 a 0.84084317,0.84084317 0 0 0 -0.84375,-0.8438 l -2.4375,0 a 0.84084317,0.84084317 0 0 0 -0.09375,0 z m 4.59375,7 0,7.1562 a 0.84084317,0.84084317 0 0 0 -0.40625,-0.125 c 0.01504,0 -0.08551,8e-4 -0.125,0 -0.04706,-8e-4 -0.06665,-0.01 -0.125,0 -0.08621,0.011 -0.140786,0.02 -0.1875,0.031 -0.137521,0.02 -0.195557,0.022 -0.28125,0.031 -0.0164,-0.043 -0.0144,-0.044 -0.03125,-0.125 -0.03834,-0.1773 -0.0625,-0.5593 -0.0625,-1.1563 l 0,-5.6875 0.78125,0 a 0.84084317,0.84084317 0 0 0 0.4375,-0.125 z M 22.375,1008 c 0.01642,0.086 0.0625,0.096 0.0625,0.2188 l 0,1 -0.09375,0 0,-0.9376 0,-0.062 c 0.01313,-0.1162 0.01819,-0.1665 0.03125,-0.2188 z m 19.34375,0 a 0.84084317,0.84084317 0 0 0 0.03125,0 l 0.375,0 0,5.875 c -10e-7,1.265 0.138388,2.2617 0.4375,3.0625 0.250337,0.6692 0.664684,1.2183 1.21875,1.5937 l -1.46875,0 a 0.84084317,0.84084317 0 0 0 -0.84375,0.8438 l 0,3.1562 c -0.02741,-0.6485 -0.163805,-1.3118 -0.4375,-1.9687 A 0.84084317,0.84084317 0 0 0 41,1020.5312 c -0.338335,-0.7372 -0.871399,-1.2751 -1.53125,-1.6562 0.502501,-0.1678 0.960938,-0.4326 1.3125,-0.8125 0.764077,-0.8315 0.999993,-2.0253 1,-3.5313 l 0,-1.2812 a 0.84084317,0.84084317 0 0 0 -0.84375,-0.8438 l -2.4375,0 a 0.84084317,0.84084317 0 0 0 -0.5,0.1563 l 0,-2.3125 a 0.84084317,0.84084317 0 0 0 0.5,0.1562 l 2.4375,0 a 0.84084317,0.84084317 0 0 0 0.84375,-0.8437 l 0,-1.0313 c -10e-7,-0.1971 -0.05367,-0.3447 -0.0625,-0.5312 z m 20.96875,0 c 0.01642,0.086 0.0625,0.096 0.0625,0.2188 l 0,1 -0.09375,0 0,-0.9376 0,-0.062 c 0.01313,-0.1162 0.01819,-0.1665 0.03125,-0.2188 z m -11.09375,0.3125 1.625,9.9063 a 0.84084317,0.84084317 0 0 0 0.3125,0.5 0.84084317,0.84084317 0 0 0 0.03125,0.031 0.84084317,0.84084317 0 0 0 -0.15625,0.094 0.84084317,0.84084317 0 0 0 -0.65625,-0.3126 l -1.28125,0 a 0.84084317,0.84084317 0 0 0 0.125,-0.4374 l 0,-9.7813 z m -25.21875,0.9687 a 0.84084317,0.84084317 0 0 0 0.6875,0.375 l 2.09375,0 c -0.828571,0.4606 -1.501164,1.0058 -2,1.625 -0.398256,0.4955 -0.70164,1.06 -0.90625,1.6876 a 0.84084317,0.84084317 0 0 0 -0.25,-0.2813 0.84084317,0.84084317 0 0 0 0.375,-0.7187 l 0,-2.6876 z m -4.03125,3.5313 0.34375,0 a 0.84084317,0.84084317 0 0 0 -0.25,0.5937 l 0,1.4063 c -1e-6,0.069 -0.02003,0.1257 -0.03125,0.1875 -0.01652,-0.07 -0.05654,-0.108 -0.0625,-0.1875 l 0,-0.031 0,-1.9687 z m 40.3125,0 0.34375,0 a 0.84084317,0.84084317 0 0 0 -0.25,0.5937 l 0,1.4063 c -10e-7,0.069 -0.02003,0.1257 -0.03125,0.1875 -0.01652,-0.07 -0.05654,-0.108 -0.0625,-0.1875 l 0,-0.031 0,-1.9687 z m -36.59375,3.375 c 0.122697,0.7858 0.346725,1.4999 0.8125,2.0313 0.0095,0.012 0.02157,0.02 0.03125,0.031 0.02481,0.03 0.06766,0.034 0.09375,0.062 -0.368618,0.014 -0.691167,0.127 -0.96875,0.2813 -0.113867,0.062 -0.229309,0.1769 -0.34375,0.25 a 0.84084317,0.84084317 0 0 0 -0.65625,-0.3126 l -0.5625,0 c 0.07787,-0.052 0.177569,-0.065 0.25,-0.125 0.505458,-0.4043 0.947871,-0.8957 1.21875,-1.5 l -0.03125,0 c 0.0989,-0.2124 0.09059,-0.4847 0.15625,-0.7187 z m 8.125,0.375 c 0.176384,0.5556 0.410543,1.0371 0.78125,1.4375 0.255922,0.2796 0.599909,0.4509 0.9375,0.625 -0.254721,0.1072 -0.509049,0.2275 -0.71875,0.4062 -0.01127,0.01 -0.02009,0.022 -0.03125,0.031 -0.957634,0.8104 -1.488591,2.0316 -1.59375,3.4063 l 0,-0.75 c -1.3e-5,-0.7644 -0.201089,-1.4685 -0.5625,-2.0938 a 0.84084317,0.84084317 0 0 0 0,-0.031 c -0.160009,-0.2632 -0.394757,-0.4621 -0.625,-0.6563 l 1.0625,0 a 0.84084317,0.84084317 0 0 0 0.84375,-0.9687 c -0.06479,-0.3981 -0.07231,-0.9192 -0.09375,-1.4063 z m -4.59375,2.25 c -0.264429,0.1664 -0.489432,0.3683 -0.71875,0.5625 -0.05472,-0.074 -0.06372,-0.182 -0.125,-0.25 0.310322,0 0.556968,-0.2139 0.84375,-0.3125 z M 37.5,1022.5 c 0.0058,0.057 0.03125,0.055 0.03125,0.125 l 0,1 -0.0625,0 0,-0.9375 0,-0.062 c 0.0076,-0.067 0.02252,-0.079 0.03125,-0.125 z m 3.96875,4.0312 0,1.1563 a 0.84084317,0.84084317 0 0 0 -0.375,-0.625 0.84084317,0.84084317 0 0 0 0.375,-0.5313 z m -4,0.6876 0.28125,0 a 0.84084317,0.84084317 0 0 0 -0.21875,0.5624 l 0,1.4376 c -2e-6,0.083 0.0059,0.096 0,0.1562 -0.01127,-0.062 -0.05722,-0.078 -0.0625,-0.1562 l 0,-0.031 0,-1.9687 z"
         inkscape:href="#text4711"
         id="path4717"
         style="font-size:24px;font-style:normal;font-variant:normal;font-weight:normal;font-stretch:normal;text-align:center;line-height:60.00000238%;letter-spacing:0px;word-spacing:0px;writing-mode:lr-tb;text-anchor:middle;fill:#252f38;fill-opacity:1;stroke:none;font-family:League Gothic;-inkscape-font-specification:League Gothic"
         xlink:href="#text4711"
         inkscape:original="M 48.3125 1000.4688 L 48.3125 1002.875 L 50.75 1002.875 L 50.75 1000.4688 L 48.3125 1000.4688 z M 42.96875 1001.7188 L 42.96875 1004.9688 L 41.75 1004.9688 L 41.75 1007.1562 L 42.96875 1007.1562 L 42.96875 1013.875 C 42.968749 1015.0781 43.101561 1016.0078 43.34375 1016.6562 C 43.749998 1017.7422 44.546872 1018.2812 45.75 1018.2812 C 46.14062 1018.2812 46.45312 1018.2656 46.6875 1018.2188 C 46.726557 1018.2109 46.76562 1018.1797 46.84375 1018.1562 C 46.929682 1018.1328 46.992182 1018.1328 47.03125 1018.125 L 47.03125 1015.75 C 46.999994 1015.7578 46.968745 1015.7422 46.90625 1015.75 C 46.843745 1015.7578 46.781245 1015.7734 46.75 1015.7812 C 46.531245 1015.8125 46.343745 1015.8438 46.15625 1015.8438 C 45.820308 1015.8438 45.609371 1015.5547 45.5 1015.0312 C 45.437496 1014.7422 45.406246 1014.3125 45.40625 1013.6875 L 45.40625 1007.1562 L 47.03125 1007.1562 L 47.03125 1004.9688 L 45.40625 1004.9688 L 45.40625 1001.7188 L 42.96875 1001.7188 z M 18.40625 1004.7812 C 17.67187 1004.7813 17.031246 1005 16.53125 1005.4688 C 16.359371 1005.6406 16.226559 1005.8203 16.125 1006 C 16.031247 1006.1797 15.984372 1006.3281 15.96875 1006.4375 L 15.96875 1004.9688 L 13.53125 1004.9688 L 13.53125 1018.0938 L 15.96875 1018.0938 L 15.96875 1008.9688 C 15.968747 1008.4609 16.148434 1008.0781 16.5 1007.7812 C 16.781246 1007.5156 17.187495 1007.375 17.71875 1007.375 C 17.98437 1007.375 18.218744 1007.4063 18.40625 1007.4688 L 18.40625 1004.7812 z M 22.40625 1004.7812 C 21.601559 1004.7813 20.992185 1004.9297 20.59375 1005.2812 C 19.773436 1005.9609 19.320312 1006.9453 19.25 1008.2188 L 19.25 1014.8125 C 19.273437 1015.4219 19.398437 1016.0156 19.625 1016.5625 C 20.140623 1017.7109 21.062497 1018.2812 22.375 1018.2812 C 23.164058 1018.2812 23.76562 1018.1016 24.1875 1017.75 C 24.617181 1017.4063 24.953119 1017.0156 25.15625 1016.5625 C 25.367181 1016.1094 25.492181 1015.5547 25.53125 1014.9062 L 25.53125 1013.4062 L 23.28125 1013.4062 L 23.28125 1014.8125 C 23.281245 1015.0781 23.226558 1015.3125 23.15625 1015.5 C 23.04687 1015.9297 22.804683 1016.1563 22.40625 1016.1562 C 22.195309 1016.1563 22.031246 1016.0938 21.90625 1015.9688 C 21.671872 1015.6641 21.523434 1015.2656 21.5 1014.8125 L 21.5 1011.9688 L 25.53125 1011.9688 L 25.53125 1008.1562 C 25.507805 1007.6016 25.359368 1007.0313 25.125 1006.4688 C 24.601556 1005.3281 23.70312 1004.7813 22.40625 1004.7812 z M 30.3125 1004.7812 C 29.374997 1004.7813 28.609373 1005.125 28 1005.8125 C 27.374999 1006.5156 27.062499 1007.3359 27.0625 1008.2812 L 27.0625 1008.8125 L 29.5 1008.8125 L 29.5 1008.1875 C 29.499997 1008.0234 29.499997 1007.8438 29.53125 1007.5938 C 29.617184 1007.1328 29.843746 1006.875 30.1875 1006.875 C 30.476558 1006.875 30.671871 1007.0156 30.78125 1007.2812 C 30.82812 1007.4375 30.843745 1007.7188 30.84375 1008.0938 L 30.84375 1009.5312 C 30.82812 1009.5703 30.804683 1009.6172 30.78125 1009.6562 C 30.757808 1009.6875 30.73437 1009.7109 30.6875 1009.75 C 30.640621 1009.7891 30.578121 1009.8125 30.53125 1009.8438 L 30.375 1009.9688 C 30.296871 1010.0078 30.210933 1010.0313 30.15625 1010.0625 L 29.9375 1010.1875 C 29.835934 1010.2422 29.742184 1010.2813 29.6875 1010.3125 C 28.874997 1010.7422 28.265623 1011.25 27.8125 1011.8125 C 27.140624 1012.6484 26.781249 1013.7031 26.78125 1015.0312 C 26.781249 1016.2344 27.031249 1017.1328 27.53125 1017.6875 C 27.851561 1018.0859 28.273435 1018.2812 28.75 1018.2812 C 29.218747 1018.2812 29.648434 1018.1172 30.03125 1017.8125 C 30.304683 1017.5938 30.515621 1017.3359 30.6875 1017.0312 L 30.84375 1017.0312 C 30.843745 1017.5469 30.914058 1017.9063 31.0625 1018.0938 L 33.4375 1018.0938 C 33.328118 1017.4219 33.281243 1016.6641 33.28125 1015.8125 L 33.28125 1007.75 C 33.281243 1006.8984 32.968743 1006.1953 32.375 1005.625 C 31.789057 1005.0625 31.101558 1004.7813 30.3125 1004.7812 z M 37.8125 1004.7812 C 36.85156 1004.7813 36.109373 1005.0625 35.59375 1005.625 C 35.007811 1006.2578 34.718749 1007.2578 34.71875 1008.6562 L 34.71875 1014.4062 C 34.718749 1015.8047 35.007811 1016.8047 35.59375 1017.4375 C 36.10156 1017.9922 36.843747 1018.2812 37.8125 1018.2812 C 38.874995 1018.2812 39.671869 1018.0234 40.15625 1017.5 C 40.687493 1016.9219 40.937493 1015.9375 40.9375 1014.5312 L 40.9375 1013.25 L 38.5 1013.25 L 38.5 1015.0625 C 38.499995 1015.4688 38.468745 1015.7578 38.375 1015.9062 C 38.281246 1016.0547 38.085933 1016.125 37.8125 1016.125 C 37.609371 1016.125 37.453121 1016.0547 37.34375 1015.9375 C 37.242184 1015.8125 37.179684 1015.6875 37.15625 1015.5625 C 37.140622 1015.4297 37.156247 1015.2656 37.15625 1015.0625 L 37.15625 1008 C 37.156247 1007.7969 37.140622 1007.625 37.15625 1007.5 C 37.179684 1007.3672 37.242184 1007.2422 37.34375 1007.125 C 37.453121 1007 37.609371 1006.9375 37.8125 1006.9375 C 38.085933 1006.9375 38.281246 1007.0078 38.375 1007.1562 C 38.468745 1007.3047 38.499995 1007.5938 38.5 1008 L 38.5 1009.5625 L 40.9375 1009.5625 L 40.9375 1008.5312 C 40.937493 1007.125 40.687493 1006.1406 40.15625 1005.5625 C 39.671869 1005.0313 38.874995 1004.7813 37.8125 1004.7812 z M 62.71875 1004.7812 C 61.914059 1004.7813 61.304685 1004.9297 60.90625 1005.2812 C 60.085936 1005.9609 59.632812 1006.9453 59.5625 1008.2188 L 59.5625 1014.8125 C 59.585937 1015.4219 59.710937 1016.0156 59.9375 1016.5625 C 60.453123 1017.7109 61.374997 1018.2812 62.6875 1018.2812 C 63.476558 1018.2812 64.07812 1018.1016 64.5 1017.75 C 64.929681 1017.4063 65.265619 1017.0156 65.46875 1016.5625 C 65.679681 1016.1094 65.804681 1015.5547 65.84375 1014.9062 L 65.84375 1013.4062 L 63.59375 1013.4062 L 63.59375 1014.8125 C 63.593745 1015.0781 63.539058 1015.3125 63.46875 1015.5 C 63.35937 1015.9297 63.117183 1016.1563 62.71875 1016.1562 C 62.507809 1016.1563 62.343746 1016.0938 62.21875 1015.9688 C 61.984372 1015.6641 61.835934 1015.2656 61.8125 1014.8125 L 61.8125 1011.9688 L 65.84375 1011.9688 L 65.84375 1008.1562 C 65.820305 1007.6016 65.671868 1007.0313 65.4375 1006.4688 C 64.914056 1005.3281 64.01562 1004.7813 62.71875 1004.7812 z M 48.3125 1004.9688 L 48.3125 1018.0938 L 50.75 1018.0938 L 50.75 1004.9688 L 48.3125 1004.9688 z M 51.90625 1004.9688 L 54.0625 1018.0938 L 56.4375 1018.0938 L 58.59375 1004.9688 L 56.21875 1004.9688 L 55.4375 1012.5625 L 55.34375 1013.4062 L 55.15625 1013.4062 L 55.0625 1012.5625 L 54.25 1004.9688 L 51.90625 1004.9688 z M 22.40625 1006.875 C 22.632808 1006.875 22.812496 1006.9375 22.9375 1007.0625 C 23.164058 1007.3438 23.281245 1007.7344 23.28125 1008.2188 L 23.28125 1010.0625 L 21.5 1010.0625 L 21.5 1008.2188 C 21.523434 1007.9141 21.570309 1007.7031 21.625 1007.5625 C 21.765622 1007.1172 22.031246 1006.875 22.40625 1006.875 z M 62.71875 1006.875 C 62.945308 1006.875 63.124996 1006.9375 63.25 1007.0625 C 63.476558 1007.3438 63.593745 1007.7344 63.59375 1008.2188 L 63.59375 1010.0625 L 61.8125 1010.0625 L 61.8125 1008.2188 C 61.835934 1007.9141 61.882809 1007.7031 61.9375 1007.5625 C 62.078122 1007.1172 62.343746 1006.875 62.71875 1006.875 z M 30.84375 1011.75 L 30.84375 1015.125 C 30.843745 1015.3516 30.757808 1015.5313 30.5625 1015.6875 C 30.367183 1015.8359 30.124996 1015.9063 29.84375 1015.9062 C 29.585934 1015.9063 29.390622 1015.7422 29.28125 1015.4062 C 29.203122 1015.1797 29.187497 1014.9453 29.1875 1014.6875 C 29.187497 1014.0313 29.320309 1013.4297 29.59375 1012.9062 C 29.874996 1012.375 30.281246 1011.9922 30.84375 1011.75 z M 27.0625 1019.1562 C 26.85937 1019.1563 26.648433 1019.2266 26.4375 1019.3438 C 26.062496 1019.5469 25.679683 1019.8203 25.3125 1020.1875 C 25.140622 1020.3594 25.046872 1020.4609 25.03125 1020.4688 L 25.03125 1019.375 L 22.625 1019.375 L 22.625 1032.5 L 25.03125 1032.5 L 25.03125 1022.1562 C 25.078122 1022.0781 25.156246 1021.9688 25.28125 1021.8438 C 25.492184 1021.6328 25.710933 1021.5313 25.9375 1021.5312 C 26.367183 1021.5313 26.593745 1021.7109 26.59375 1022.0938 L 26.59375 1032.5 L 28.875 1032.5 L 28.875 1022.1562 C 28.906243 1022.0938 28.976555 1021.9844 29.125 1021.8438 C 29.33593 1021.6328 29.562492 1021.5313 29.78125 1021.5312 C 30.218741 1021.5313 30.437491 1021.7109 30.4375 1022.0938 L 30.4375 1032.5 L 32.71875 1032.5 L 32.71875 1021.7188 C 32.718739 1021.0859 32.570302 1020.5313 32.28125 1020.0312 C 31.929677 1019.4531 31.453115 1019.1563 30.875 1019.1562 C 30.687491 1019.1563 30.492179 1019.2422 30.25 1019.375 C 29.773429 1019.6563 29.36718 1019.9531 29.0625 1020.2812 C 28.89843 1020.4453 28.781243 1020.5547 28.6875 1020.625 C 28.343743 1019.6485 27.804681 1019.1563 27.0625 1019.1562 z M 37.53125 1019.1562 C 36.726559 1019.1563 36.117185 1019.336 35.71875 1019.6875 C 34.898436 1020.3672 34.445312 1021.3516 34.375 1022.625 L 34.375 1029.2188 C 34.398437 1029.8281 34.523437 1030.4219 34.75 1030.9688 C 35.265623 1032.1172 36.187497 1032.6875 37.5 1032.6875 C 38.289058 1032.6875 38.89062 1032.5078 39.3125 1032.1562 C 39.742181 1031.8125 40.046869 1031.4219 40.25 1030.9688 C 40.460931 1030.5156 40.585931 1029.9609 40.625 1029.3125 L 40.625 1027.7812 L 38.375 1027.7812 L 38.375 1029.2188 C 38.374995 1029.4844 38.351558 1029.7188 38.28125 1029.9062 C 38.17187 1030.3359 37.929683 1030.5313 37.53125 1030.5312 C 37.320309 1030.5313 37.124996 1030.4688 37 1030.3438 C 36.765622 1030.0391 36.648434 1029.6719 36.625 1029.2188 L 36.625 1026.375 L 40.625 1026.375 L 40.625 1022.5625 C 40.601555 1022.0078 40.484368 1021.4375 40.25 1020.875 C 39.726556 1019.7344 38.82812 1019.1563 37.53125 1019.1562 z M 46.6875 1019.1562 C 46.476557 1019.1563 46.273433 1019.2266 46.0625 1019.3438 C 45.773433 1019.5 45.414058 1019.7735 45 1020.1875 C 44.828122 1020.3594 44.734372 1020.4609 44.71875 1020.4688 L 44.71875 1019.375 L 42.3125 1019.375 L 42.3125 1032.5 L 44.71875 1032.5 L 44.71875 1022.1562 C 44.765622 1022.0781 44.843746 1021.9688 44.9375 1021.8438 C 45.148434 1021.6328 45.328121 1021.5313 45.5 1021.5312 C 45.89062 1021.5313 46.093745 1021.7109 46.09375 1022.0938 L 46.09375 1032.5 L 48.5 1032.5 L 48.5 1021.7188 C 48.499993 1021.0859 48.351555 1020.5313 48.0625 1020.0312 C 47.710931 1019.4531 47.257807 1019.1563 46.6875 1019.1562 z M 50.3125 1019.375 L 50.3125 1030.125 C 50.312499 1030.7734 50.460936 1031.3359 50.75 1031.8125 C 51.093748 1032.3984 51.546873 1032.6875 52.125 1032.6875 C 52.335935 1032.6875 52.554684 1032.625 52.78125 1032.5 C 53.054684 1032.3516 53.414058 1032.0547 53.84375 1031.625 C 53.98437 1031.4844 54.062495 1031.3906 54.09375 1031.375 L 54.09375 1032.5 L 56.53125 1032.5 L 56.53125 1019.375 L 54.09375 1019.375 L 54.09375 1029.6875 C 53.992183 1029.8594 53.914058 1029.9922 53.875 1030.0312 C 53.664058 1030.2422 53.484371 1030.3438 53.3125 1030.3438 C 53.132809 1030.3438 53.007809 1030.2969 52.90625 1030.2188 C 52.804684 1030.1406 52.749997 1029.9766 52.75 1029.75 L 52.75 1019.375 L 50.3125 1019.375 z M 37.53125 1021.2812 C 37.757808 1021.2813 37.906246 1021.3438 38.03125 1021.4688 C 38.257808 1021.75 38.374995 1022.1406 38.375 1022.625 L 38.375 1024.4688 L 36.625 1024.4688 L 36.625 1022.625 C 36.648434 1022.3203 36.695309 1022.1094 36.75 1021.9688 C 36.890622 1021.5234 37.156246 1021.2813 37.53125 1021.2812 z "
         inkscape:radius="0.8407591"
         sodipodi:type="inkscape:offset" />
      <text
         xml:space="preserve"
         style="font-size:24px;font-style:normal;font-variant:normal;font-weight:normal;font-stretch:normal;text-align:center;line-height:60.00000238%;letter-spacing:0px;word-spacing:0px;writing-mode:lr-tb;text-anchor:middle;fill:#ffffff;fill-opacity:1;stroke:none;font-family:League Gothic;-inkscape-font-specification:League Gothic"
         x="39.556641"
         y="1018.0914"
         id="text4711"
         sodipodi:linespacing="60.000002%"><tspan
           sodipodi:role="line"
           id="tspan4713"
           x="39.556641"
           y="1018.0914"
           style="font-size:24px;font-style:normal;font-variant:normal;font-weight:normal;font-stretch:normal;text-align:center;line-height:60.00000238%;writing-mode:lr-tb;text-anchor:middle;fill:#ffffff;font-family:League Gothic;-inkscape-font-specification:League Gothic">reactive</tspan><tspan
           sodipodi:role="line"
           x="39.556641"
           y="1032.4913"
           id="tspan4715"
           style="font-size:24px;font-style:normal;font-variant:normal;font-weight:normal;font-stretch:normal;text-align:center;line-height:60.00000238%;writing-mode:lr-tb;text-anchor:middle;fill:#ffffff;font-family:League Gothic;-inkscape-font-specification:League Gothic">menu</tspan></text>
    </g>
    <g
       id="g3918"
       transform="translate(2.8024089,0.08273781)"
       inkscape:export-filename="/home/amirouche/src/hypercraft.io/jquery-reactive-menu/jquery-reactive-menu-logo.png"
       inkscape:export-xdpi="90"
       inkscape:export-ydpi="90">
      <path
         transform="translate(-1.7677664,-9.2807766)"
         d="m 17.09375,985.84375 c -0.474755,10e-6 -0.930012,0.0612 -1.375,0.15625 -0.448352,0.0914 -0.850996,0.2102 -1.25,0.375 -0.394795,0.16308 -0.78086,0.35689 -1.125,0.59375 -0.341706,0.23381 -0.634485,0.51068 -0.875,0.78125 -0.243984,0.27013 -0.450829,0.52565 -0.59375,0.84375 -0.07179,0.1598 -0.123098,0.33472 -0.15625,0.5 a 0.19240967,0.19240967 0 0 0 -0.0625,0 l -1.875,0 a 0.19240967,0.19240967 0 0 0 -0.03125,0 0.19240967,0.19240967 0 0 0 -0.03125,0 0.19240967,0.19240967 0 0 0 -0.03125,0.0312 0.19240967,0.19240967 0 0 0 -0.0625,0.0625 0.19240967,0.19240967 0 0 0 -0.03125,0.0312 0.19240967,0.19240967 0 0 0 0,0.0312 l -1.3125,6.28125 c -0.2769709,0.0833 -0.5346863,0.16139 -0.78125,0.25 -0.2907462,0.10735 -0.5641122,0.25245 -0.78125,0.40625 -0.227651,0.15796 -0.3962656,0.35753 -0.53125,0.59375 -0.1339764,0.23447 -0.218747,0.51001 -0.21875,0.84375 3.2e-6,0.25243 0.086381,0.49489 0.1875,0.6875 l -0.03125,0 c 0.096763,0.19836 0.2454932,0.36288 0.40625,0.5 0.1651266,0.14084 0.3597069,0.23875 0.5625,0.3125 0.2069902,0.077 0.4131823,0.0937 0.625,0.0937 0.2161298,0 0.4301514,-0.003 0.6875,-0.0625 0.2737167,-0.0635 0.5510461,-0.20348 0.78125,-0.375 0.2398301,-0.17526 0.4357886,-0.41241 0.625,-0.71875 0.199645,-0.31572 0.341447,-0.70725 0.4375,-1.1875 l 1.46875,-7.03125 c 0.04555,0.31557 0.147608,0.58578 0.375,0.75 0.275478,0.19534 0.652754,0.28126 1.09375,0.28125 a 0.19240967,0.19240967 0 0 0 0.03125,0 c -0.105222,0.3991 -0.190995,0.80396 -0.25,1.1875 -0.06445,0.44258 -0.09375,0.82521 -0.09375,1.1875 -10e-7,0.48532 0.03107,0.91499 0.15625,1.28125 0.123697,0.35735 0.334,0.6465 0.5625,0.875 0.227218,0.22722 0.473581,0.39897 0.78125,0.5 0.298671,0.0981 0.633594,0.15625 1,0.15625 0.235357,0 0.458329,-0.033 0.65625,-0.0625 0.142099,-0.0212 0.290714,-0.0587 0.4375,-0.0937 0.05383,0.14079 0.106159,0.27661 0.15625,0.40625 0.08037,0.19647 0.178841,0.39544 0.3125,0.5625 0.139391,0.17304 0.315929,0.33473 0.53125,0.4375 0.232283,0.11357 0.510515,0.125 0.8125,0.125 0.1275,0 0.265448,0.002 0.40625,-0.0312 0.009,-0.002 0.02227,0.002 0.03125,0 0.155017,-0.0411 0.315433,-0.12486 0.4375,-0.21875 0.133582,-0.0976 0.236644,-0.24328 0.34375,-0.40625 0.102554,-0.15161 0.218085,-0.32424 0.3125,-0.5625 a 0.19240967,0.19240967 0 0 0 0,-0.0625 0.19240967,0.19240967 0 0 0 0,-0.0312 0.19240967,0.19240967 0 0 0 -0.03125,-0.0937 A 0.19240967,0.19240967 0 0 0 19.75,996 a 0.19240967,0.19240967 0 0 0 -0.0625,-0.0312 0.19240967,0.19240967 0 0 0 -0.0625,0 0.19240967,0.19240967 0 0 0 -0.03125,0 c 0.0038,-6.3e-4 -0.06059,-0.009 -0.15625,0 -0.01943,0.002 -0.0668,0 -0.125,0 -0.201074,0 -0.346424,-0.0174 -0.46875,-0.0625 -0.129441,-0.0443 -0.256712,-0.12806 -0.375,-0.21875 -0.121105,-0.0888 -0.219676,-0.16986 -0.3125,-0.28125 -0.07126,-0.0855 -0.151996,-0.16066 -0.21875,-0.25 0.245715,-0.19948 0.483293,-0.40749 0.6875,-0.65625 0.244761,-0.29285 0.437717,-0.6065 0.625,-0.9375 0.189722,-0.33202 0.391042,-0.69885 0.53125,-1.0625 0.140242,-0.36816 0.227314,-0.74026 0.3125,-1.09375 0.0885,-0.35404 0.174326,-0.67148 0.21875,-1.03125 0.04319,-0.34989 0.06249,-0.68682 0.0625,-1 -9e-6,-0.4947 -0.04031,-0.97812 -0.15625,-1.40625 -0.112491,-0.43641 -0.302482,-0.81022 -0.5625,-1.125 -0.265837,-0.32644 -0.646929,-0.57571 -1.0625,-0.75 -0.419459,-0.1778 -0.909644,-0.24999 -1.5,-0.25 z M 11,986.3125 c -0.178407,10e-6 -0.326244,0.032 -0.46875,0.0937 a 0.19240967,0.19240967 0 0 0 -0.03125,0 c -0.144397,0.0647 -0.237971,0.17548 -0.34375,0.28125 -0.118937,0.11895 -0.2204776,0.26602 -0.28125,0.40625 -0.054403,0.13601 -0.093751,0.28657 -0.09375,0.46875 -1.4e-6,0.18219 0.039346,0.33275 0.09375,0.46875 a 0.19240967,0.19240967 0 0 0 0,0.0312 c 0.06473,0.14441 0.17546,0.23797 0.28125,0.34375 0.10218,0.0975 0.195985,0.21502 0.34375,0.28125 a 0.19240967,0.19240967 0 0 0 0.03125,0 c 0.161282,0.0645 0.314412,0.0625 0.46875,0.0625 0.154334,10e-6 0.308039,0.004 0.46875,-0.0625 0.14355,-0.0622 0.29062,-0.17088 0.40625,-0.28125 0.113823,-0.10887 0.218023,-0.2027 0.28125,-0.34375 a 0.19240967,0.19240967 0 0 0 0,-0.0312 c 0.06175,-0.14251 0.09375,-0.29033 0.09375,-0.46875 -4e-6,-0.1784 -0.032,-0.32623 -0.09375,-0.46875 -0.05934,-0.13693 -0.154004,-0.28452 -0.28125,-0.40625 -0.108475,-0.10846 -0.246687,-0.19141 -0.375,-0.25 -0.0051,-0.002 0.0051,-0.029 0,-0.0312 -0.0086,-0.004 -0.02253,0.004 -0.03125,0 -0.135707,-0.0577 -0.301117,-0.0937 -0.46875,-0.0937 z m 5.78125,0.5 c 0.320724,10e-6 0.565536,0.0731 0.75,0.15625 a 0.19240967,0.19240967 0 0 0 0.03125,0 c 0.177026,0.0764 0.299563,0.17822 0.40625,0.34375 0.104658,0.16242 0.179574,0.3899 0.21875,0.65625 0.0463,0.28204 0.09374,0.57695 0.09375,0.9375 -7e-6,0.45018 -0.07224,0.94599 -0.15625,1.4375 -0.08323,0.48271 -0.198326,0.92209 -0.34375,1.375 -0.142276,0.45611 -0.311657,0.89227 -0.5,1.28125 -0.158026,0.32292 -0.325126,0.57327 -0.5,0.8125 -0.09565,-0.0593 -0.20134,-0.11349 -0.3125,-0.15625 -0.199562,-0.0819 -0.413123,-0.0937 -0.65625,-0.0937 -0.121792,0 -0.26156,0.009 -0.40625,0.0312 -0.08149,0.0131 -0.1628,0.0429 -0.25,0.0625 -3.01e-4,-0.01 0,-0.0208 0,-0.0312 0.0048,-0.106 -3e-6,-0.21183 0,-0.3125 -3e-6,-0.31945 0.03928,-0.67287 0.09375,-1.0625 0.05654,-0.37964 0.152569,-0.795 0.25,-1.1875 0.0025,-0.01 -0.0025,-0.0214 0,-0.0312 0.102176,-0.39104 0.239305,-0.77384 0.375,-1.15625 0.141472,-0.39113 0.27202,-0.73568 0.4375,-1.0625 a 0.19240967,0.19240967 0 0 0 0.03125,0 c 0.166994,-0.33399 0.325915,-0.64157 0.5,-0.875 0.179941,-0.23992 0.323864,-0.39506 0.5,-0.5 a 0.19240967,0.19240967 0 0 0 0.03125,0 0.19240967,0.19240967 0 0 0 0.03125,-0.0312 0.19240967,0.19240967 0 0 0 0.03125,-0.0937 0.19240967,0.19240967 0 0 0 0,-0.0312 0.19240967,0.19240967 0 0 0 0,-0.0625 0.19240967,0.19240967 0 0 0 -0.03125,-0.0312 0.19240967,0.19240967 0 0 0 -0.0625,-0.0625 0.19240967,0.19240967 0 0 0 -0.03125,-0.0312 c -0.129206,-0.049 -0.240183,-0.0782 -0.375,-0.0937 -0.101017,-0.0117 -0.212114,-0.0312 -0.34375,-0.0312 -0.425355,10e-6 -0.831197,0.12164 -1.1875,0.34375 -0.349013,0.21757 -0.66474,0.49621 -0.9375,0.84375 -0.265011,0.34322 -0.513189,0.71015 -0.71875,1.15625 -0.167299,0.37097 -0.313308,0.76458 -0.4375,1.15625 -0.0024,-0.01 0.0028,-0.0213 0,-0.0312 -0.01827,-0.0656 -0.05158,-0.13835 -0.0625,-0.1875 -0.01437,-0.091 -0.03125,-0.14178 -0.03125,-0.25 -10e-7,-0.4891 0.123611,-0.93078 0.3125,-1.3125 0.193219,-0.39449 0.430119,-0.73145 0.75,-1 0.323721,-0.27239 0.720561,-0.47841 1.15625,-0.625 0.437237,-0.15119 0.872826,-0.24999 1.34375,-0.25 z M 30.21875,989 c -0.461061,10e-6 -0.899561,0.0419 -1.28125,0.21875 -0.375402,0.16939 -0.667583,0.44442 -0.9375,0.71875 -0.270549,0.27055 -0.497184,0.56103 -0.6875,0.90625 -0.18698,0.33917 -0.354525,0.6754 -0.46875,1.03125 -0.111807,0.34833 -0.196997,0.69115 -0.25,1.03125 -0.05285,0.33912 -0.0625,0.65056 -0.0625,0.90625 -0.0077,0.0168 0.0034,0.0179 0,0.0312 -0.05354,0.11041 -0.128144,0.20895 -0.21875,0.3125 -0.08685,0.0992 -0.144423,0.17873 -0.21875,0.21875 -0.07598,0.0395 -0.193444,0.0625 -0.28125,0.0625 -0.141591,0 -0.225723,-0.0514 -0.28125,-0.0937 -0.02647,-0.0225 -0.0625,-0.0652 -0.0625,-0.21875 -2e-6,-0.0245 0.01901,-0.0584 0.03125,-0.15625 0.0099,-0.0845 0.01953,-0.14767 0.03125,-0.1875 a 0.19240967,0.19240967 0 0 0 0,-0.0312 l 0.9375,-4.4375 a 0.19240967,0.19240967 0 0 0 0,-0.0625 0.19240967,0.19240967 0 0 0 0,-0.0312 0.19240967,0.19240967 0 0 0 -0.03125,-0.0312 0.19240967,0.19240967 0 0 0 -0.0625,-0.0625 0.19240967,0.19240967 0 0 0 -0.03125,-0.0312 0.19240967,0.19240967 0 0 0 -0.0625,0 l -1.875,0 a 0.19240967,0.19240967 0 0 0 -0.03125,0 0.19240967,0.19240967 0 0 0 -0.03125,0 0.19240967,0.19240967 0 0 0 -0.03125,0.0312 0.19240967,0.19240967 0 0 0 -0.0625,0.0625 0.19240967,0.19240967 0 0 0 -0.03125,0.0312 0.19240967,0.19240967 0 0 0 0,0.0312 l -0.875,4.15625 0,0.0312 c -0.04588,0.14245 -0.125691,0.2749 -0.1875,0.40625 -0.05725,0.12593 -0.109618,0.22349 -0.1875,0.3125 -0.07677,0.0921 -0.143837,0.1768 -0.21875,0.21875 -0.08973,0.0467 -0.162189,0.0625 -0.25,0.0625 -0.100755,0 -0.138327,-0.0294 -0.15625,-0.0625 -0.04434,-0.0853 -0.0625,-0.16669 -0.0625,-0.28125 -2e-6,-0.10319 0.009,-0.22491 0.03125,-0.34375 l 0.9375,-4.4375 a 0.19240967,0.19240967 0 0 0 0,-0.0625 0.19240967,0.19240967 0 0 0 0,-0.0312 0.19240967,0.19240967 0 0 0 -0.03125,-0.0312 0.19240967,0.19240967 0 0 0 -0.0625,-0.0625 0.19240967,0.19240967 0 0 0 -0.03125,-0.0312 0.19240967,0.19240967 0 0 0 -0.0625,0 l -1.875,0 a 0.19240967,0.19240967 0 0 0 -0.03125,0 0.19240967,0.19240967 0 0 0 -0.03125,0 0.19240967,0.19240967 0 0 0 -0.03125,0.0312 0.19240967,0.19240967 0 0 0 -0.0625,0.0625 0.19240967,0.19240967 0 0 0 -0.03125,0.0312 0.19240967,0.19240967 0 0 0 0,0.0312 l -0.875,4.1875 c -0.03701,0.18043 -0.0463,0.33106 -0.0625,0.46875 -0.01691,0.13951 -0.03125,0.27226 -0.03125,0.40625 0,0.28524 0.0077,0.54841 0.09375,0.78125 0.08469,0.22917 0.24342,0.39514 0.375,0.53125 0.14346,0.14346 0.301664,0.27434 0.5,0.34375 0.184591,0.0646 0.376349,0.0937 0.59375,0.0937 0.166558,0 0.316333,-0.0337 0.46875,-0.0625 0.166866,-0.0271 0.36878,-0.0832 0.5625,-0.1875 0.184185,-0.0992 0.352712,-0.23664 0.53125,-0.40625 0.102439,-0.0973 0.186888,-0.24696 0.28125,-0.375 0.07917,0.26738 0.195256,0.48688 0.375,0.65625 a 0.19240967,0.19240967 0 0 0 0,0.0312 c 0.255071,0.23546 0.589931,0.34375 1,0.34375 0.12558,0 0.259267,-0.009 0.40625,-0.0312 0.159663,-0.0242 0.308236,-0.0626 0.46875,-0.125 0.166122,-0.0646 0.32765,-0.16333 0.5,-0.28125 0.180201,-0.1233 0.371525,-0.28242 0.53125,-0.46875 0.03469,-0.0394 0.06252,-0.0816 0.09375,-0.125 0.09313,0.17717 0.204213,0.37043 0.34375,0.5 0.193045,0.17926 0.408614,0.31644 0.6875,0.40625 0.266829,0.0814 0.577055,0.125 0.90625,0.125 0.452413,0 0.873678,-0.0754 1.25,-0.21875 0.372472,-0.14461 0.722557,-0.3254 1.03125,-0.5625 0.144636,-0.10951 0.249337,-0.2497 0.375,-0.375 l -0.1875,0.84375 a 0.19240967,0.19240967 0 0 0 0,0.0625 0.19240967,0.19240967 0 0 0 0,0.0312 0.19240967,0.19240967 0 0 0 0.03125,0.0312 0.19240967,0.19240967 0 0 0 0.0625,0.0625 0.19240967,0.19240967 0 0 0 0.03125,0.0312 0.19240967,0.19240967 0 0 0 0.0625,0 l 1.875,0 a 0.19240967,0.19240967 0 0 0 0.03125,0 0.19240967,0.19240967 0 0 0 0.03125,0 0.19240967,0.19240967 0 0 0 0.03125,-0.0312 0.19240967,0.19240967 0 0 0 0.0625,-0.0625 0.19240967,0.19240967 0 0 0 0.03125,-0.0312 0.19240967,0.19240967 0 0 0 0,-0.0312 l 1,-4.84375 c 0.137513,-0.12339 0.257924,-0.23567 0.375,-0.3125 0.08523,-0.0586 0.217349,-0.0899 0.375,-0.0937 0.04348,0.0621 0.06197,0.0918 0.0625,0.0937 0.01152,0.0432 0.01684,0.0698 0.03125,0.15625 0.02596,0.11038 0.09004,0.21572 0.125,0.28125 0.03442,0.0645 0.08675,0.1516 0.1875,0.21875 0.109969,0.0687 0.231185,0.0937 0.375,0.0937 0.188298,0 0.383122,-0.025 0.53125,-0.0937 0.139668,-0.0698 0.253475,-0.17593 0.34375,-0.28125 0.08333,-0.0921 0.166868,-0.19388 0.21875,-0.34375 0.05254,-0.15762 0.03124,-0.29967 0.03125,-0.40625 -5e-6,-0.12004 0.02138,-0.27373 -0.03125,-0.4375 -0.04993,-0.15532 -0.133444,-0.27547 -0.21875,-0.375 -0.0906,-0.10568 -0.203935,-0.21392 -0.34375,-0.28125 -0.126459,-0.0632 -0.287109,-0.0937 -0.46875,-0.0937 -0.195234,10e-6 -0.383529,0.0445 -0.53125,0.0937 -0.155038,0.0517 -0.297555,0.13749 -0.4375,0.21875 -0.121506,0.0689 -0.213844,0.13833 -0.3125,0.21875 l 0.0625,-0.3125 a 0.19240967,0.19240967 0 0 0 0,-0.0312 0.19240967,0.19240967 0 0 0 0,-0.0625 0.19240967,0.19240967 0 0 0 -0.03125,-0.0312 0.19240967,0.19240967 0 0 0 -0.0625,-0.0625 0.19240967,0.19240967 0 0 0 -0.03125,-0.0312 0.19240967,0.19240967 0 0 0 -0.03125,0 0.19240967,0.19240967 0 0 0 -0.03125,0 l -1.875,0 a 0.19240967,0.19240967 0 0 0 -0.03125,0 0.19240967,0.19240967 0 0 0 -0.03125,0 0.19240967,0.19240967 0 0 0 -0.03125,0.0312 0.19240967,0.19240967 0 0 0 -0.0625,0.0625 0.19240967,0.19240967 0 0 0 -0.03125,0.0312 0.19240967,0.19240967 0 0 0 0,0.0312 l -0.84375,4.0625 0,0.0312 a 0.19240967,0.19240967 0 0 0 -0.03125,0 c -0.157945,0.17414 -0.301331,0.33687 -0.46875,0.5 -0.161087,0.16109 -0.309941,0.30284 -0.46875,0.40625 -0.167325,0.10895 -0.367142,0.18748 -0.5625,0.25 -0.182678,0.0597 -0.379804,0.0937 -0.625,0.0937 -0.119902,0 -0.267304,-0.0368 -0.375,-0.0625 -0.01184,-0.004 -0.02081,0.003 -0.03125,0 -0.07607,-0.0249 -0.138914,-0.0452 -0.1875,-0.0937 -0.04831,-0.051 -0.09038,-0.16698 -0.125,-0.28125 -0.02719,-0.1027 -0.03125,-0.24472 -0.03125,-0.46875 -2e-6,-0.0729 -0.0017,-0.15332 0,-0.21875 2.38e-4,-0.009 -4.47e-4,-0.0223 0,-0.0312 0.0041,-0.0381 0.02605,-0.0816 0.03125,-0.125 0.342872,-0.0367 0.675627,-0.0852 1,-0.21875 0.382187,-0.15737 0.712834,-0.37318 1,-0.625 0.298782,-0.25804 0.512692,-0.5656 0.6875,-0.90625 0.176579,-0.34863 0.281245,-0.71944 0.28125,-1.125 -5e-6,-0.16663 -0.02019,-0.34102 -0.0625,-0.5 -0.0021,-0.009 0.0023,-0.0227 0,-0.0312 -0.04424,-0.16202 -0.162596,-0.30722 -0.28125,-0.4375 -0.0062,-0.007 0.0064,-0.0245 0,-0.0312 -0.126034,-0.1305 -0.29611,-0.2696 -0.5,-0.34375 -0.224461,-0.0887 -0.479684,-0.0937 -0.78125,-0.0937 z m 7.40625,0.0937 a 0.19240967,0.19240967 0 0 0 -0.03125,0.0312 0.19240967,0.19240967 0 0 0 -0.0625,0.0625 0.19240967,0.19240967 0 0 0 -0.03125,0.0312 0.19240967,0.19240967 0 0 0 0,0.0312 l -0.90625,4.1875 c -0.03701,0.18043 -0.0463,0.33106 -0.0625,0.46875 -0.01691,0.13951 -0.03125,0.27226 -0.03125,0.40625 0,0.29981 0.04523,0.5654 0.125,0.78125 0.07841,0.21217 0.200827,0.3834 0.34375,0.53125 0.14346,0.14346 0.301664,0.27434 0.5,0.34375 0.182192,0.0638 0.387066,0.0903 0.59375,0.0937 -0.07697,0.045 -0.180759,0.076 -0.25,0.125 -0.229131,0.1623 -0.371269,0.36847 -0.5,0.59375 -0.12751,0.23141 -0.21875,0.50823 -0.21875,0.84375 0,0.23606 0.02245,0.4824 0.125,0.6875 a 0.19240967,0.19240967 0 0 0 0.03125,0 c 0.100312,0.19585 0.219774,0.36359 0.375,0.5 0.166542,0.14205 0.365436,0.23917 0.5625,0.3125 0.209074,0.076 0.41318,0.0937 0.625,0.0937 0.216126,0 0.45777,-0.002 0.71875,-0.0625 0.278344,-0.0635 0.55201,-0.2042 0.78125,-0.375 0.239826,-0.17526 0.435786,-0.41241 0.625,-0.71875 0.199641,-0.31572 0.341444,-0.70725 0.4375,-1.1875 l 1.59375,-7.5625 a 0.19240967,0.19240967 0 0 0 0,-0.0625 0.19240967,0.19240967 0 0 0 0,-0.0312 0.19240967,0.19240967 0 0 0 -0.03125,-0.0312 0.19240967,0.19240967 0 0 0 -0.0625,-0.0625 0.19240967,0.19240967 0 0 0 -0.03125,-0.0312 0.19240967,0.19240967 0 0 0 -0.0625,0 l -1.90625,0 a 0.19240967,0.19240967 0 0 0 -0.03125,0 0.19240967,0.19240967 0 0 0 -0.03125,0 0.19240967,0.19240967 0 0 0 -0.03125,0.0312 0.19240967,0.19240967 0 0 0 -0.0625,0.0625 0.19240967,0.19240967 0 0 0 -0.03125,0.0312 0.19240967,0.19240967 0 0 0 0,0.0312 l -0.875,4.15625 0,0.0312 c -0.04588,0.14245 -0.125691,0.2749 -0.1875,0.40625 -0.05725,0.12593 -0.109618,0.22349 -0.1875,0.3125 -0.07677,0.0921 -0.143837,0.1768 -0.21875,0.21875 -0.08973,0.0467 -0.162189,0.0625 -0.25,0.0625 -0.01457,0 -0.03839,-0.0192 -0.0625,-0.0312 -0.0091,-0.007 -0.02359,0.006 -0.03125,0 -0.02553,-0.0211 -0.05818,-0.0551 -0.0625,-0.0625 -0.01702,-0.0316 -0.02127,-0.0717 -0.03125,-0.125 -0.01422,-0.0758 -0.03125,-0.14258 -0.03125,-0.1875 -10e-7,-0.0668 0.03318,-0.15421 0.0625,-0.28125 l 0.9375,-4.4375 a 0.19240967,0.19240967 0 0 0 0,-0.0625 0.19240967,0.19240967 0 0 0 0,-0.0312 0.19240967,0.19240967 0 0 0 -0.03125,-0.0312 0.19240967,0.19240967 0 0 0 -0.0625,-0.0625 0.19240967,0.19240967 0 0 0 -0.03125,-0.0312 0.19240967,0.19240967 0 0 0 -0.0625,0 l -1.875,0 a 0.19240967,0.19240967 0 0 0 -0.03125,0 0.19240967,0.19240967 0 0 0 -0.03125,0 z m -7.28125,0.96875 c 0.0469,0 0.05961,-0.001 0.0625,0 0.0029,0.001 -0.0077,0.0152 0,0.0312 0.02116,0.0443 0.0625,0.16442 0.0625,0.3125 -4e-6,0.24695 -0.0598,0.48727 -0.15625,0.71875 -0.09381,0.23061 -0.213533,0.40865 -0.375,0.59375 -0.166427,0.18673 -0.333304,0.36245 -0.53125,0.46875 -0.108616,0.0583 -0.224447,0.0675 -0.34375,0.0937 0.05007,-0.2075 0.08525,-0.412 0.15625,-0.625 0.107381,-0.31388 0.211461,-0.60323 0.34375,-0.84375 0.135293,-0.24599 0.270883,-0.45838 0.40625,-0.59375 0.128032,-0.12803 0.254977,-0.15624 0.375,-0.15625 z m -14.90625,4.34375 c 0.01772,-0.004 0.05869,0 0.0625,0 0.158385,0 0.233848,0.0355 0.3125,0.0937 0.02481,0.0175 0.06723,0.0633 0.09375,0.0937 -0.04973,0.009 -0.109952,0.0312 -0.15625,0.0312 -0.112712,0 -0.180623,-0.035 -0.25,-0.0937 -0.02653,-0.0225 -0.03788,-0.0901 -0.0625,-0.125 z m -7.375,2 -0.09375,0.4375 c -0.044244,0.20353 -0.084206,0.34717 -0.125,0.4375 -0.054879,0.12151 -0.1091153,0.22823 -0.15625,0.28125 -0.043556,0.0517 -0.072317,0.0721 -0.125,0.0937 a 0.19240967,0.19240967 0 0 0 -0.03125,0 c -0.019344,0.009 -0.052365,0.0312 -0.125,0.0312 -0.073426,0 -0.1145699,-0.0264 -0.125,-0.0312 a 0.19240967,0.19240967 0 0 0 -0.03125,0 c -0.051263,-0.0205 -0.065038,-0.0364 -0.09375,-0.0625 0.016717,0.0137 0.00488,-0.0215 -0.03125,-0.0937 -0.018124,-0.0362 -0.052665,-0.0182 -0.0625,-0.0312 -8e-7,-0.0215 -0.00402,-0.0372 0,-0.0312 0.00563,-0.13378 0.039096,-0.2748 0.09375,-0.375 0.052136,-0.0981 0.1529523,-0.17364 0.28125,-0.28125 0.1321806,-0.11014 0.2597683,-0.2115 0.40625,-0.28125 0.064937,-0.0294 0.1440217,-0.0658 0.21875,-0.0937 z m 31.125,0.0312 -0.09375,0.40625 c -0.04007,0.18431 -0.105014,0.32404 -0.15625,0.4375 -0.0563,0.12465 -0.07934,0.2329 -0.125,0.28125 a 0.19240967,0.19240967 0 0 0 -0.03125,0 c -0.0461,0.0548 -0.07216,0.0732 -0.125,0.0937 a 0.19240967,0.19240967 0 0 0 -0.03125,0 c -0.03614,0.017 -0.02502,0.0312 -0.09375,0.0312 -0.07343,0 -0.114577,-0.0264 -0.125,-0.0312 a 0.19240967,0.19240967 0 0 0 -0.03125,0 c -0.05127,-0.0205 -0.06504,-0.0364 -0.09375,-0.0625 -0.01594,-0.0131 -0.05462,-0.078 -0.0625,-0.0937 -0.02009,-0.0402 -0.03125,0.005 -0.03125,-0.0312 -10e-7,-0.15738 0.01,-0.273 0.0625,-0.375 0.06329,-0.11253 0.169448,-0.2156 0.28125,-0.3125 0.11363,-0.0916 0.267585,-0.16909 0.4375,-0.25 0.0744,-0.0354 0.146303,-0.0591 0.21875,-0.0937 z"
         id="path3916"
         style="font-size:13px;font-style:normal;font-weight:normal;line-height:125%;letter-spacing:0px;word-spacing:0px;fill:#252f38;fill-opacity:1;stroke:none;font-family:Sans"
         xlink:href="#text3144"
         inkscape:original="M 17.09375 986.03125 C 16.636714 986.03126 16.185868 986.09441 15.75 986.1875 C 15.314124 986.27638 14.92057 986.4017 14.53125 986.5625 C 14.141925 986.72332 13.763344 986.90073 13.4375 987.125 C 13.115884 987.34506 12.861978 987.60841 12.625 987.875 C 12.38802 988.13738 12.193684 988.39552 12.0625 988.6875 C 11.931315 988.9795 11.875 989.28907 11.875 989.59375 C 11.875 989.99154 11.990234 990.27247 12.21875 990.4375 C 12.451497 990.60254 12.772785 990.68751 13.1875 990.6875 C 13.187498 990.66211 13.173176 990.62338 13.15625 990.59375 C 13.143553 990.56413 13.141926 990.54655 13.125 990.5 C 13.112303 990.44922 13.079426 990.35743 13.0625 990.28125 C 13.049803 990.20085 13.031249 990.12696 13.03125 990 C 13.031249 989.48373 13.140624 989.00424 13.34375 988.59375 C 13.546873 988.17904 13.813474 987.81902 14.15625 987.53125 C 14.503252 987.23927 14.922197 987.02735 15.375 986.875 C 15.827795 986.71843 16.286128 986.62501 16.78125 986.625 C 17.124018 986.62501 17.409174 986.68393 17.625 986.78125 C 17.840814 986.87436 18.002272 987.02833 18.125 987.21875 C 18.247715 987.40919 18.332676 987.64975 18.375 987.9375 C 18.421543 988.22104 18.468743 988.52963 18.46875 988.90625 C 18.468743 989.37598 18.397129 989.87989 18.3125 990.375 C 18.227858 990.86589 18.116856 991.31999 17.96875 991.78125 C 17.824864 992.24252 17.663405 992.69173 17.46875 993.09375 C 17.274083 993.49154 17.059565 993.81446 16.84375 994.09375 C 16.708328 993.98796 16.571284 993.90723 16.40625 993.84375 C 16.241206 993.77604 16.041011 993.75 15.8125 993.75 C 15.70247 993.75 15.572913 993.76009 15.4375 993.78125 C 15.306311 993.80241 15.160804 993.83692 15 993.875 C 14.978838 993.79037 14.968747 993.71387 14.96875 993.625 C 14.972978 993.5319 14.968747 993.4183 14.96875 993.3125 C 14.968747 992.97819 15.007484 992.61231 15.0625 992.21875 C 15.121741 991.82097 15.210934 991.40625 15.3125 991 C 15.418291 990.58952 15.547848 990.20606 15.6875 989.8125 C 15.831376 989.41472 15.986975 989.05307 16.15625 988.71875 C 16.325516 988.38022 16.501297 988.06218 16.6875 987.8125 C 16.877924 987.5586 17.051101 987.39975 17.25 987.28125 C 17.127273 987.23471 17.016271 987.2002 16.90625 987.1875 C 16.796219 987.17481 16.703771 987.15626 16.59375 987.15625 C 16.204423 987.15626 15.825842 987.26563 15.5 987.46875 C 15.17415 987.67188 14.887367 987.94695 14.625 988.28125 C 14.366859 988.61557 14.136391 988.97462 13.9375 989.40625 C 13.742836 989.8379 13.568683 990.29721 13.4375 990.75 C 13.306313 991.19857 13.223957 991.65365 13.15625 992.09375 C 13.092772 992.52963 13.062499 992.89877 13.0625 993.25 C 13.062499 993.72396 13.104491 994.13444 13.21875 994.46875 C 13.333006 994.79883 13.511391 995.07389 13.71875 995.28125 C 13.926105 995.48861 14.153969 995.62565 14.4375 995.71875 C 14.721026 995.81185 15.032223 995.875 15.375 995.875 C 15.590816 995.875 15.801103 995.84212 16 995.8125 C 16.198889 995.78288 16.403316 995.74674 16.59375 995.6875 C 16.657222 995.87793 16.740555 996.0638 16.8125 996.25 C 16.888667 996.4362 16.975255 996.60189 17.09375 996.75 C 17.216466 996.90234 17.376296 997.03613 17.5625 997.125 C 17.752924 997.2181 17.993483 997.25 18.28125 997.25 C 18.420892 997.25 18.533522 997.2526 18.65625 997.21875 C 18.783196 997.18913 18.921217 997.11588 19.03125 997.03125 C 19.141269 996.95085 19.246412 996.83561 19.34375 996.6875 C 19.441073 996.54362 19.536125 996.38053 19.625 996.15625 C 19.574211 996.16471 19.515292 996.15202 19.46875 996.15625 C 19.422193 996.16048 19.359042 996.15625 19.3125 996.15625 C 19.109368 996.15625 18.94205 996.15299 18.78125 996.09375 C 18.620436 996.03874 18.470696 995.94108 18.34375 995.84375 C 18.21679 995.75065 18.105788 995.6582 18 995.53125 C 17.894199 995.4043 17.780593 995.26465 17.6875 995.125 C 17.975254 994.90918 18.235996 994.65853 18.46875 994.375 C 18.705722 994.09147 18.911777 993.79037 19.09375 993.46875 C 19.27994 993.14291 19.458326 992.78874 19.59375 992.4375 C 19.729159 992.08203 19.821606 991.72624 19.90625 991.375 C 19.995109 991.01954 20.082674 990.68653 20.125 990.34375 C 20.167309 990.00098 20.187491 989.67969 20.1875 989.375 C 20.187491 988.89259 20.141268 988.43751 20.03125 988.03125 C 19.925447 987.62078 19.741203 987.26075 19.5 986.96875 C 19.258781 986.67254 18.924797 986.4463 18.53125 986.28125 C 18.141921 986.11622 17.665033 986.03126 17.09375 986.03125 z M 11 986.5 C 10.856118 986.50001 10.720701 986.53875 10.59375 986.59375 C 10.471027 986.64877 10.374347 986.71941 10.28125 986.8125 C 10.18815 986.90561 10.117512 987.02931 10.0625 987.15625 C 10.011718 987.28321 9.9687489 987.41863 9.96875 987.5625 C 9.9687489 987.70639 10.011718 987.8418 10.0625 987.96875 C 10.117512 988.09148 10.18815 988.18816 10.28125 988.28125 C 10.374347 988.37012 10.471027 988.44499 10.59375 988.5 C 10.720701 988.55079 10.856118 988.56251 11 988.5625 C 11.143878 988.56251 11.283526 988.55079 11.40625 988.5 C 11.5332 988.44499 11.656898 988.37012 11.75 988.28125 C 11.847328 988.18816 11.913734 988.09148 11.96875 987.96875 C 12.02376 987.8418 12.062497 987.70639 12.0625 987.5625 C 12.062497 987.41863 12.02376 987.28321 11.96875 987.15625 C 11.913734 987.02931 11.847328 986.90561 11.75 986.8125 C 11.656898 986.71941 11.5332 986.64877 11.40625 986.59375 C 11.283526 986.53875 11.143878 986.50001 11 986.5 z M 30.21875 989.1875 C 29.774411 989.18751 29.378253 989.24545 29.03125 989.40625 C 28.684243 989.56283 28.383137 989.80014 28.125 990.0625 C 27.866861 990.32064 27.650715 990.60743 27.46875 990.9375 C 27.286783 991.26758 27.141276 991.59473 27.03125 991.9375 C 26.921224 992.28028 26.832031 992.61166 26.78125 992.9375 C 26.730469 993.26335 26.71875 993.56283 26.71875 993.8125 C 26.71875 993.84832 26.717829 993.87143 26.71875 993.90625 C 26.714764 993.91496 26.722812 993.92887 26.71875 993.9375 C 26.651035 994.07715 26.557611 994.17969 26.46875 994.28125 C 26.379877 994.38281 26.29752 994.47201 26.1875 994.53125 C 26.0817 994.58626 25.939447 994.625 25.8125 994.625 C 25.630529 994.625 25.495112 994.56771 25.40625 994.5 C 25.32161 994.42806 25.281245 994.30697 25.28125 994.125 C 25.281245 994.05729 25.304031 994.00521 25.3125 993.9375 C 25.320959 993.86556 25.322586 993.79069 25.34375 993.71875 L 26.28125 989.28125 L 24.40625 989.28125 L 23.53125 993.46875 C 23.480466 993.63379 23.411455 993.79362 23.34375 993.9375 C 23.28027 994.07715 23.213864 994.17969 23.125 994.28125 C 23.040362 994.38281 22.949542 994.47201 22.84375 994.53125 C 22.737953 994.58626 22.626951 994.625 22.5 994.625 C 22.351886 994.625 22.242511 994.57031 22.1875 994.46875 C 22.132485 994.36296 22.093748 994.24186 22.09375 994.09375 C 22.093748 993.98373 22.099608 993.85417 22.125 993.71875 L 23.0625 989.28125 L 21.1875 989.28125 L 20.3125 993.46875 C 20.278646 993.63379 20.266927 993.79362 20.25 993.9375 C 20.233073 994.07715 20.21875 994.19401 20.21875 994.3125 C 20.21875 994.58757 20.24056 994.83659 20.3125 995.03125 C 20.38444 995.22591 20.502278 995.37305 20.625 995.5 C 20.751953 995.62695 20.893229 995.72201 21.0625 995.78125 C 21.23177 995.84049 21.399087 995.875 21.59375 995.875 C 21.729165 995.875 21.874673 995.84212 22.03125 995.8125 C 22.187824 995.78711 22.366209 995.74512 22.53125 995.65625 C 22.696287 995.56738 22.861977 995.44206 23.03125 995.28125 C 23.200518 995.12044 23.366208 994.8916 23.53125 994.625 C 23.577796 995.03548 23.717445 995.35514 23.9375 995.5625 C 24.157548 995.76563 24.4401 995.875 24.8125 995.875 C 24.926753 995.875 25.047847 995.86491 25.1875 995.84375 C 25.327143 995.82259 25.472651 995.77799 25.625 995.71875 C 25.777338 995.65951 25.932937 995.57878 26.09375 995.46875 C 26.254551 995.35872 26.41015 995.20898 26.5625 995.03125 C 26.658416 994.92237 26.752593 994.76406 26.84375 994.625 C 26.855125 994.66239 26.861847 994.71454 26.875 994.75 C 26.968099 995.00814 27.103515 995.20996 27.28125 995.375 C 27.458984 995.54004 27.656575 995.6696 27.90625 995.75 C 28.155923 995.82617 28.441079 995.875 28.75 995.875 C 29.177407 995.875 29.582029 995.79167 29.9375 995.65625 C 30.297197 995.5166 30.614254 995.34928 30.90625 995.125 C 31.20247 994.90072 31.454748 994.63151 31.6875 994.34375 C 31.697107 994.33208 31.709233 994.32419 31.71875 994.3125 L 31.40625 995.78125 L 33.28125 995.78125 L 34.3125 990.84375 C 34.473305 990.69564 34.614581 990.58887 34.75 990.5 C 34.885414 990.40691 35.051104 990.37501 35.25 990.375 C 35.313473 990.37501 35.349606 990.39519 35.375 990.4375 C 35.404619 990.47982 35.451819 990.53028 35.46875 990.59375 C 35.485673 990.65723 35.487301 990.70508 35.5 990.78125 C 35.516923 990.8532 35.559892 990.93653 35.59375 991 C 35.6276 991.06348 35.65527 991.11394 35.71875 991.15625 C 35.786454 991.19857 35.877275 991.21875 36 991.21875 C 36.156571 991.21875 36.319006 991.18002 36.4375 991.125 C 36.555985 991.06576 36.642573 990.99512 36.71875 990.90625 C 36.799149 990.81739 36.868159 990.73503 36.90625 990.625 C 36.944331 990.51075 36.937495 990.39551 36.9375 990.28125 C 36.937495 990.1543 36.944331 990.02475 36.90625 989.90625 C 36.868159 989.78777 36.794917 989.68262 36.71875 989.59375 C 36.642573 989.50489 36.551753 989.43002 36.4375 989.375 C 36.32747 989.31999 36.210608 989.28126 36.0625 989.28125 C 35.90592 989.28126 35.733395 989.32846 35.59375 989.375 C 35.454098 989.42156 35.318681 989.48633 35.1875 989.5625 C 35.060544 989.63445 34.962237 989.71518 34.84375 989.8125 C 34.725258 989.90984 34.583005 989.99219 34.46875 990.09375 L 34.65625 989.28125 L 32.78125 989.28125 L 31.90625 993.46875 L 31.875 993.46875 C 31.709956 993.65072 31.540034 993.80794 31.375 993.96875 C 31.214188 994.12956 31.056962 994.28776 30.875 994.40625 C 30.69303 994.52474 30.492835 994.61979 30.28125 994.6875 C 30.07389 994.75521 29.851885 994.78125 29.59375 994.78125 C 29.437172 994.78125 29.274737 994.74837 29.15625 994.71875 C 29.04199 994.6849 28.955402 994.6429 28.875 994.5625 C 28.798826 994.4821 28.729816 994.3584 28.6875 994.21875 C 28.649412 994.07487 28.656248 993.90755 28.65625 993.6875 C 28.656248 993.61133 28.652016 993.52214 28.65625 993.4375 C 28.664712 993.34864 28.679035 993.25358 28.6875 993.15625 C 29.076821 993.13086 29.452797 993.05436 29.8125 992.90625 C 30.172197 992.75814 30.474931 992.55371 30.75 992.3125 C 31.029293 992.07129 31.241207 991.79037 31.40625 991.46875 C 31.571284 991.14291 31.656245 990.81413 31.65625 990.4375 C 31.656245 990.2767 31.636063 990.11687 31.59375 989.96875 C 31.555659 989.81641 31.485021 989.67676 31.375 989.5625 C 31.269201 989.44825 31.123694 989.34896 30.9375 989.28125 C 30.75553 989.20932 30.510739 989.18751 30.21875 989.1875 z M 9.78125 989.28125 L 8.4375 995.6875 C 8.1243497 995.7806 7.8333344 995.87142 7.5625 995.96875 C 7.2874365 996.07031 7.0468768 996.19987 6.84375 996.34375 C 6.6363955 996.48763 6.462242 996.66764 6.34375 996.875 C 6.2252631 997.08236 6.1562527 997.32031 6.15625 997.625 C 6.1562527 997.83659 6.2236355 998.04948 6.3125 998.21875 C 6.3971379 998.39225 6.5123722 998.53353 6.65625 998.65625 C 6.8001323 998.77897 6.970054 998.86979 7.15625 998.9375 C 7.3382177 999.00521 7.5240899 999.03125 7.71875 999.03125 C 7.9303395 999.03125 8.1380216 999.02376 8.375 998.96875 C 8.6119794 998.91373 8.8466797 998.7858 9.0625 998.625 C 9.2825517 998.46419 9.478515 998.25651 9.65625 997.96875 C 9.8382152 997.68099 9.9694 997.30924 10.0625 996.84375 L 11.65625 989.28125 L 9.78125 989.28125 z M 37.6875 989.28125 L 36.78125 993.46875 C 36.747396 993.63379 36.735677 993.79362 36.71875 993.9375 C 36.701823 994.07715 36.6875 994.19401 36.6875 994.3125 C 36.6875 994.58757 36.74056 994.83659 36.8125 995.03125 C 36.88444 995.22591 36.971028 995.37305 37.09375 995.5 C 37.220703 995.62695 37.361979 995.72201 37.53125 995.78125 C 37.70052 995.84049 37.899087 995.875 38.09375 995.875 C 38.208006 995.875 38.310545 995.86491 38.4375 995.84375 C 38.564451 995.82682 38.708331 995.80078 38.84375 995.75 C 38.979164 995.69499 39.110349 995.59733 39.25 995.5 C 39.389646 995.40267 39.516599 995.28581 39.65625 995.125 L 39.53125 995.6875 C 39.218097 995.7806 38.931313 995.87142 38.65625 995.96875 C 38.385415 996.07031 38.140624 996.19987 37.9375 996.34375 C 37.734374 996.48763 37.587239 996.66764 37.46875 996.875 C 37.354492 997.08236 37.28125 997.32031 37.28125 997.625 C 37.28125 997.83659 37.321614 998.04948 37.40625 998.21875 C 37.495116 998.39225 37.610351 998.53353 37.75 998.65625 C 37.893879 998.77897 38.068033 998.86979 38.25 998.9375 C 38.436196 999.00521 38.617837 999.03125 38.8125 999.03125 C 39.024086 999.03125 39.263018 999.02376 39.5 998.96875 C 39.741208 998.91373 39.971677 998.7858 40.1875 998.625 C 40.407548 998.46419 40.603512 998.25651 40.78125 997.96875 C 40.963212 997.68099 41.094397 997.30924 41.1875 996.84375 L 42.78125 989.28125 L 40.875 989.28125 L 40 993.46875 C 39.949216 993.63379 39.880205 993.79362 39.8125 993.9375 C 39.74902 994.07715 39.682614 994.17969 39.59375 994.28125 C 39.509112 994.38281 39.418292 994.47201 39.3125 994.53125 C 39.206703 994.58626 39.095701 994.625 38.96875 994.625 C 38.892576 994.625 38.832029 994.59212 38.78125 994.5625 C 38.734699 994.52865 38.685871 994.48828 38.65625 994.4375 C 38.626626 994.38249 38.606443 994.31771 38.59375 994.25 C 38.581053 994.18229 38.562498 994.10742 38.5625 994.03125 C 38.562498 993.92123 38.599608 993.82878 38.625 993.71875 L 39.5625 989.28125 L 37.6875 989.28125 z M 30.34375 989.875 C 30.466468 989.87501 30.547197 989.90268 30.59375 990 C 30.640296 990.09734 30.656246 990.24545 30.65625 990.40625 C 30.656246 990.67709 30.605791 990.9336 30.5 991.1875 C 30.398434 991.43718 30.267249 991.64486 30.09375 991.84375 C 29.920244 992.03842 29.728513 992.22103 29.5 992.34375 C 29.271482 992.46647 29.026691 992.51433 28.78125 992.53125 C 28.844725 992.20964 28.925454 991.91114 29.03125 991.59375 C 29.141274 991.27214 29.266599 990.97266 29.40625 990.71875 C 29.545896 990.46485 29.687172 990.25033 29.84375 990.09375 C 30.004554 989.93295 30.178708 989.87501 30.34375 989.875 z M 15.5 994.21875 C 15.686194 994.21875 15.823238 994.25912 15.9375 994.34375 C 16.051753 994.42416 16.138342 994.55632 16.21875 994.6875 C 16.138342 994.73828 16.084631 994.76009 16 994.78125 C 15.91536 994.80241 15.830399 994.8125 15.75 994.8125 C 15.44954 994.8125 15.239254 994.63672 15.125 994.28125 C 15.188473 994.26009 15.24902 994.25423 15.3125 994.25 C 15.375973 994.24154 15.440751 994.21875 15.5 994.21875 z M 8.34375 996.09375 L 8.15625 996.875 C 8.1139331 997.06966 8.0904956 997.24381 8.03125 997.375 C 7.9720061 997.50618 7.9114593 997.61133 7.84375 997.6875 C 7.7760428 997.7679 7.6969413 997.81413 7.625 997.84375 C 7.5530612 997.8776 7.4739597 997.875 7.40625 997.875 C 7.3300797 997.875 7.2509782 997.87337 7.1875 997.84375 C 7.1240252 997.81836 7.0778013 997.79232 7.03125 997.75 C 6.9847024 997.71191 6.9628926 997.64453 6.9375 997.59375 C 6.9121114 997.54297 6.875002 997.51953 6.875 997.46875 C 6.875002 997.29101 6.9238301 997.1084 7 996.96875 C 7.0719419 996.83333 7.1813168 996.73503 7.3125 996.625 C 7.4394546 996.51921 7.5722669 996.39713 7.75 996.3125 C 7.9277353 996.2321 8.136394 996.16146 8.34375 996.09375 z M 39.4375 996.09375 L 39.28125 996.875 C 39.23893 997.06966 39.184242 997.24381 39.125 997.375 C 39.065753 997.50618 39.009438 997.61133 38.9375 997.6875 C 38.86979 997.7679 38.79492 997.81413 38.71875 997.84375 C 38.646808 997.8776 38.594725 997.875 38.53125 997.875 C 38.455076 997.875 38.375975 997.87337 38.3125 997.84375 C 38.249022 997.81836 38.202798 997.79232 38.15625 997.75 C 38.109699 997.71191 38.056639 997.64453 38.03125 997.59375 C 38.005858 997.54297 37.999999 997.51953 38 997.46875 C 37.999999 997.29525 38.021809 997.13965 38.09375 997 C 38.16992 996.86458 38.279295 996.73503 38.40625 996.625 C 38.537433 996.51921 38.697264 996.42838 38.875 996.34375 C 39.052732 996.25911 39.234373 996.16146 39.4375 996.09375 z "
         inkscape:radius="0.19239043"
         sodipodi:type="inkscape:offset"
         inkscape:href="#text3144" />
      <text
         sodipodi:linespacing="125%"
         id="text3048"
         y="986.86591"
         x="6.5900955"
         style="font-size:13px;font-style:normal;font-weight:normal;line-height:125%;letter-spacing:0px;word-spacing:0px;fill:#ffffff;fill-opacity:1;stroke:none;font-family:Sans"
         xml:space="preserve"><tspan
           style="font-size:13px;font-style:normal;font-variant:normal;font-weight:normal;font-stretch:normal;fill:#ffffff;font-family:Lobster;-inkscape-font-specification:Lobster"
           y="986.86591"
           x="6.5900955"
           id="tspan3050"
           sodipodi:role="line">jQuery</tspan></text>
    </g>
  </g>
  <g
     inkscape:groupmode="layer"
     id="layer2"
     inkscape:label="glow"
     transform="translate(0.06855392,-0.75744891)" />
</svg>
